<svg xmlns="http://www.w3.org/2000/svg" xmlns:xlink="http://www.w3.org/1999/xlink" width="500" zoomAndPan="magnify" viewBox="0 0 375 374.999991" height="500" preserveAspectRatio="xMidYMid meet" version="1.0"><defs><clipPath id="8980f401d6"><path d="M 11.183594 26 L 365.183594 26 L 365.183594 350 L 11.183594 350 Z M 11.183594 26 " clip-rule="nonzero"/></clipPath><clipPath id="92954e5ff3"><path d="M 55.054688 85.015625 C 55.003906 85.175781 54.949219 85.332031 54.898438 85.488281 C 54.878906 85.398438 54.816406 85.292969 54.851562 85.226562 C 54.90625 85.144531 54.976562 85.074219 55.054688 85.015625 Z M 222.800781 34.609375 C 226.078125 35.296875 229.226562 36.589844 232.742188 36.390625 C 230.027344 34.203125 226.960938 33.011719 223.363281 33.117188 C 221.996094 32.929688 220.582031 32.515625 219.101562 33.707031 C 220.480469 34.414062 221.585938 34.6875 222.800781 34.609375 Z M 55.082031 84.933594 C 55.074219 84.960938 55.066406 84.988281 55.054688 85.015625 C 55.082031 84.996094 55.101562 84.96875 55.121094 84.945312 Z M 225.371094 348.765625 C 225.160156 348.792969 225.003906 349.1875 224.742188 349.519531 C 225.285156 349.597656 225.765625 349.730469 226.246094 349.726562 C 226.832031 349.71875 227.199219 349.347656 226.734375 348.917969 C 226.46875 348.679688 225.820312 348.703125 225.371094 348.765625 Z M 52.25 90.398438 C 52.546875 90.058594 52.644531 89.570312 52.832031 89.148438 C 53.15625 88.898438 53.214844 88.410156 52.925781 88.378906 C 52.039062 88.28125 51.839844 88.90625 51.816406 89.582031 L 51.816406 89.585938 C 51.226562 89.875 50.378906 90.296875 50.839844 90.898438 C 51.429688 91.675781 51.910156 90.78125 52.25 90.398438 Z M 55.148438 84.898438 C 55.125 84.90625 55.109375 84.925781 55.082031 84.933594 L 55.125 84.945312 C 55.128906 84.929688 55.140625 84.914062 55.148438 84.898438 Z M 55.148438 84.898438 C 56.886719 80.007812 60.8125 76.625 64.707031 73.222656 C 67.292969 71.960938 69.105469 69.867188 70.539062 67.707031 C 71.777344 65.839844 73.4375 64.875 75.386719 64.019531 C 81.625 58.480469 87.800781 52.867188 95.589844 47.792969 C 94.394531 52.875 89.335938 53.523438 86.835938 56.488281 C 84.410156 59.363281 80.855469 61.4375 77.796875 63.863281 C 77.796875 63.863281 77.796875 63.863281 77.800781 63.863281 C 73.78125 67.566406 69.761719 71.273438 65.742188 74.980469 C 65.726562 74.972656 65.726562 74.960938 65.710938 74.957031 C 65.777344 75.449219 65.570312 75.824219 65.121094 76.097656 C 64.835938 76.261719 64.550781 76.421875 64.265625 76.582031 C 63.992188 76.769531 63.691406 76.863281 63.359375 76.863281 C 62.488281 77.78125 63.019531 79.65625 60.722656 79.71875 C 60.070312 79.734375 57.320312 80.4375 59.664062 82.355469 C 60.179688 82.773438 59.050781 83.347656 58.507812 83.296875 C 56.945312 83.140625 56.292969 84.433594 55.148438 84.898438 Z M 65.714844 74.910156 C 65.71875 74.917969 65.710938 74.921875 65.714844 74.929688 L 65.742188 74.980469 C 65.742188 74.980469 65.714844 74.910156 65.714844 74.910156 Z M 346.203125 121.804688 C 346.199219 124.539062 347.550781 126.753906 349.800781 129.742188 C 348.664062 126.308594 347.855469 123.855469 347.042969 121.402344 C 346.472656 120.210938 346.355469 118.761719 344.695312 118.011719 C 344.675781 119.53125 345.558594 120.628906 346.203125 121.804688 Z M 330.515625 278.5625 C 331.558594 277.46875 332.191406 276.359375 331.648438 274.628906 C 330.398438 276.667969 330.398438 276.667969 330.515625 278.5625 Z M 364.632812 208.363281 C 364.855469 208.554688 365.078125 208.746094 365.304688 208.9375 C 365.367188 208.796875 365.527344 208.59375 365.476562 208.527344 C 365.28125 208.3125 365.066406 208.117188 364.832031 207.945312 C 364.765625 208.082031 364.699219 208.222656 364.632812 208.363281 Z M 327.632812 280.425781 C 324.050781 282.699219 323.910156 282.859375 322.359375 286.558594 C 324.40625 284.894531 326.265625 283.09375 327.632812 280.425781 Z M 217.832031 27.492188 C 215.308594 26.28125 213.402344 26.429688 211.484375 26.628906 C 213.097656 27.921875 214.929688 28.132812 217.832031 27.492188 Z M 189.792969 340.902344 C 189.785156 341.789062 189.027344 342.136719 188.386719 342.574219 C 189.597656 342.542969 190.683594 342.425781 189.792969 340.902344 Z M 312.304688 295.984375 C 315.386719 295.386719 316.6875 293.179688 317.839844 290.839844 C 318.96875 290.210938 320.726562 290.003906 320.027344 288.050781 C 318.804688 288.695312 317.941406 289.511719 317.742188 290.800781 C 315.085938 291.78125 314.109375 294.246094 312.304688 295.984375 Z M 48.886719 95.234375 C 48.835938 95.101562 48.292969 94.96875 48.1875 95.054688 C 47.882812 95.289062 47.660156 95.589844 47.53125 95.953125 C 47.398438 96.316406 47.375 96.6875 47.457031 97.066406 C 47.722656 97.113281 48.082031 97.285156 48.222656 97.1875 C 48.925781 96.699219 49.207031 96.015625 48.886719 95.234375 Z M 318.578125 80.359375 C 326.402344 88.1875 334.1875 95.929688 338.875 105.832031 C 339.949219 108.101562 341.308594 110.253906 342.546875 112.457031 C 343.070312 113.394531 343.542969 115.003906 344.871094 114.398438 C 346.546875 113.632812 345.386719 112.152344 344.703125 111.214844 C 342.710938 108.492188 340.824219 105.730469 339.417969 102.710938 C 338.488281 100.714844 337.679688 98.65625 336.582031 96.742188 C 330.917969 86.816406 322.785156 78.695312 314.0625 71.03125 C 308.6875 66.3125 303.460938 61.5 297.183594 57.648438 C 292.859375 54.996094 289.144531 51.453125 284.839844 48.667969 C 281.75 46.664062 278.394531 45.296875 273.925781 44.714844 C 275.523438 46.898438 277.210938 47.695312 278.734375 48.59375 C 293.695312 57.414062 306.585938 68.367188 318.578125 80.359375 Z M 333.964844 271.335938 C 334.066406 271.398438 334.203125 271.542969 334.265625 271.519531 C 334.515625 271.457031 334.730469 271.339844 334.917969 271.164062 C 335.09375 270.9375 334.898438 270.769531 334.503906 270.769531 C 334.324219 270.957031 334.144531 271.144531 333.964844 271.335938 Z M 116.867188 311.230469 L 116.835938 311.316406 Z M 283.402344 58.261719 L 283.417969 58.289062 C 283.433594 58.289062 283.449219 58.292969 283.464844 58.292969 Z M 278.882812 56.132812 C 279.085938 55.679688 279.289062 55.230469 279.492188 54.777344 C 268.03125 46.003906 255.21875 39.496094 241.203125 34.773438 C 234.058594 32.363281 226.625 30.804688 219.117188 28.074219 C 220.402344 26.753906 221.65625 27.089844 222.851562 27.308594 C 232.355469 29.027344 241.71875 31.195312 250.777344 34.40625 C 259.449219 37.488281 266.808594 42.554688 274.066406 47.671875 C 278.230469 50.601562 282.136719 53.863281 286.363281 56.746094 C 287.171875 57.296875 288.226562 57.820312 287.648438 58.929688 C 287.230469 59.726562 286.109375 59.386719 285.339844 59.65625 C 285.550781 59.851562 285.675781 60.089844 285.714844 60.375 C 285.128906 60.21875 284.929688 59.820312 284.78125 59.390625 C 284.335938 59.027344 284.085938 58.441406 283.464844 58.289062 L 283.464844 58.292969 C 283.457031 58.289062 283.453125 58.285156 283.445312 58.28125 C 283.429688 58.277344 283.417969 58.261719 283.402344 58.261719 C 283.414062 58.261719 283.417969 58.269531 283.425781 58.269531 C 282.644531 57.839844 281.949219 57.300781 281.335938 56.65625 C 280.558594 56.292969 279.738281 56.121094 278.882812 56.132812 Z M 283.039062 57.457031 C 283.019531 57.449219 283 57.441406 282.984375 57.433594 C 283.140625 57.714844 283.296875 58 283.457031 58.28125 C 283.832031 58.296875 284.171875 58.410156 284.476562 58.628906 C 284.382812 58.425781 284.242188 58.261719 284.050781 58.140625 C 283.742188 57.875 283.402344 57.648438 283.035156 57.460938 Z M 353.421875 230.132812 C 353.148438 230.5625 352.871094 230.988281 352.585938 231.410156 C 352.785156 230.761719 352.945312 230.101562 353.0625 229.429688 C 352.480469 230.875 351.402344 232.164062 350.886719 233.628906 C 350.148438 234.503906 349.300781 235.253906 348.347656 235.886719 C 349.109375 235.71875 349.871094 235.378906 350.640625 235.871094 C 348.832031 237.417969 348.386719 239.351562 348.667969 241.511719 C 351.792969 237.796875 354.011719 233.71875 355.203125 229.183594 C 354.078125 228.644531 353.648438 229.214844 353.421875 230.132812 Z M 277.5 55.75 C 273.808594 54.074219 270.316406 51.824219 265.761719 52.046875 C 265.960938 54.25 267.65625 54.632812 269.257812 55.074219 C 271.839844 55.792969 274.429688 56.476562 277.019531 57.171875 C 276.261719 56.4375 276.566406 56.003906 277.5 55.75 Z M 218.03125 346.851562 C 221.429688 347.015625 224.792969 346.707031 228.136719 346.183594 C 231.496094 345.789062 234.855469 345.410156 238.210938 344.992188 C 244.273438 344.234375 249.105469 340.785156 254.539062 338.65625 L 254.542969 338.65625 C 255.390625 338.8125 256.203125 338.699219 256.976562 338.3125 C 265.71875 334.328125 274.460938 330.339844 283.199219 326.347656 C 283.972656 325.996094 284.582031 325.488281 284.929688 324.742188 C 289.214844 322.335938 292.953125 319.40625 295.628906 315.4375 C 296.882812 313.996094 298.210938 312.605469 299.371094 311.105469 C 301.289062 308.621094 304.132812 306.78125 305.363281 303.828125 C 304.117188 304.269531 302.941406 304.789062 302.058594 305.785156 C 299.1875 309.027344 296.285156 312.246094 293.394531 315.472656 C 293.390625 315.472656 293.390625 315.476562 293.390625 315.476562 C 286.632812 321.40625 279.195312 326.445312 270.757812 330.1875 C 267.363281 330.980469 264.917969 333.570312 261.496094 334.300781 C 256.957031 336 252.082031 336.9375 247.875 339.40625 C 243.945312 341.707031 239.605469 342.957031 235.003906 343.542969 C 233.167969 343.78125 231.371094 344.246094 229.550781 344.609375 L 219.460938 345.085938 C 220.359375 346.621094 219.324219 346.824219 218.03125 346.851562 Z M 12.78125 148.925781 C 12.761719 148.835938 12.214844 148.71875 12.042969 148.8125 C 11.765625 148.949219 11.558594 149.15625 11.414062 149.429688 C 11.273438 149.703125 11.226562 149.992188 11.273438 150.296875 C 11.539062 150.339844 11.882812 150.496094 12.058594 150.402344 C 12.648438 150.082031 12.921875 149.550781 12.78125 148.925781 Z M 145.691406 315.832031 L 145.652344 315.96875 C 145.671875 315.898438 145.691406 315.832031 145.691406 315.832031 Z M 145.652344 315.96875 L 145.613281 316.101562 C 145.613281 316.101562 145.632812 316.035156 145.652344 315.96875 Z M 357.777344 185.53125 C 358.617188 179.117188 359.230469 172.714844 356.863281 166.429688 L 356.867188 166.429688 C 356.769531 160.433594 356.105469 154.476562 355.222656 148.546875 C 354.589844 144.289062 353.503906 140.101562 351.742188 136.089844 C 352.355469 134.167969 350.984375 133.007812 349.6875 131.792969 C 349.964844 133.101562 350.242188 134.40625 350.515625 135.714844 L 350.519531 135.714844 C 353.707031 145.550781 354.132812 155.757812 355.3125 165.867188 C 355.550781 172.023438 355.789062 178.179688 356.027344 184.335938 C 357.523438 183.605469 357.953125 184.195312 357.777344 185.53125 Z M 108.117188 330.445312 C 107.984375 330.261719 107.800781 330.1875 107.578125 330.230469 C 107.699219 330.328125 107.828125 330.425781 107.953125 330.523438 C 107.761719 330.621094 107.570312 330.722656 107.375 330.804688 C 106.71875 331.179688 106.015625 331.320312 105.269531 331.226562 C 103.910156 330.492188 102.546875 329.761719 101.183594 329.03125 C 98.195312 326.851562 94.832031 325.261719 91.472656 323.667969 C 90.820312 323.292969 90.144531 322.949219 89.5 322.566406 C 89.390625 322.519531 89.300781 322.441406 89.195312 322.394531 C 89.273438 322.15625 89.355469 321.917969 89.433594 321.683594 C 89.136719 321.746094 88.871094 321.878906 88.644531 322.078125 C 87.390625 321.382812 86.257812 320.515625 84.898438 319.964844 C 82.394531 318.953125 79.714844 318.078125 78.984375 315.191406 C 78.816406 315.601562 78.75 316.03125 78.789062 316.476562 C 78.636719 316.335938 78.460938 316.234375 78.316406 316.085938 C 77.179688 315.382812 77.230469 313.695312 75.636719 313.367188 C 77.203125 319.109375 80.320312 323.679688 86.492188 326.195312 C 89.589844 327.457031 92.460938 329.179688 95.511719 330.546875 C 102.53125 333.695312 109.550781 336.863281 117.035156 339.019531 C 118.949219 339.570312 120.910156 340.464844 122.628906 338.613281 C 121.90625 336.726562 119.96875 336.871094 118.445312 336.402344 C 114.765625 335.257812 110.890625 334.578125 107.617188 332.488281 C 107.832031 331.914062 108.046875 331.335938 108.261719 330.761719 C 108.832031 330.597656 109.402344 330.429688 109.972656 330.265625 C 109.253906 329.910156 108.679688 330.152344 108.117188 330.445312 Z M 36.0625 262.402344 C 35.851562 260.585938 35.769531 258.738281 35.132812 256.914062 C 37.320312 256.253906 39.207031 255.492188 40.277344 258.042969 C 40.84375 259.398438 42.179688 259.980469 43.597656 259.644531 C 48.402344 258.492188 51.765625 260.601562 54.867188 263.527344 C 55.566406 264.1875 56.433594 264.699219 57.332031 265.355469 C 57.132812 261.867188 56.804688 258.492188 56.785156 255.113281 C 56.773438 253.203125 57.316406 251.886719 58.308594 251.140625 C 56.464844 248.257812 54.683594 245.320312 53.039062 242.277344 C 39.816406 217.777344 35.140625 191.441406 37.90625 166.101562 C 37.230469 164.402344 36.519531 162.710938 35.804688 161.023438 C 33.945312 156.617188 33.125 151.984375 33.117188 147.269531 C 33.105469 142.058594 36.042969 137.988281 39.933594 134.609375 C 42.640625 132.261719 45.394531 129.957031 48.167969 127.667969 C 59.609375 101.46875 79.644531 78.355469 106.835938 62.230469 C 110.097656 60.101562 113.480469 58.183594 116.980469 56.472656 C 120.648438 54.679688 124.386719 53.113281 128.164062 51.65625 C 128.945312 51.335938 129.734375 51.035156 130.523438 50.730469 C 130.808594 50.628906 131.089844 50.515625 131.375 50.414062 C 195.363281 26.019531 268.488281 44.667969 310.007812 93.8125 C 309.457031 93.046875 308.90625 92.277344 308.289062 91.535156 C 303.285156 85.476562 300.371094 78.082031 294.582031 72.535156 C 288.988281 67.175781 283.460938 61.726562 277.019531 57.175781 C 277.179688 56.699219 277.339844 56.222656 277.5 55.75 C 277.960938 55.878906 278.421875 56.007812 278.882812 56.132812 C 280.234375 57.136719 281.480469 58.332031 283.417969 58.289062 C 283.933594 59.214844 284.308594 60.273438 285.714844 60.375 C 289.796875 65.390625 294.824219 69.574219 299.730469 73.859375 C 301.488281 75.390625 303.015625 77.140625 303.890625 79.136719 C 306.53125 85.152344 311.0625 90.035156 314.832031 95.386719 C 319.75 102.390625 324.175781 109.695312 328.109375 117.292969 C 333.019531 126.683594 337.359375 136.328125 341.128906 146.234375 C 342.628906 150.195312 343.761719 154.289062 343.417969 158.582031 C 343.183594 161.457031 344.761719 163.980469 345.4375 166.679688 C 345.867188 168.402344 346.925781 166.496094 348.152344 166.652344 C 346.195312 169.761719 346.542969 173.03125 346.8125 176.351562 C 347.363281 183.191406 348.167969 190.027344 347.917969 196.90625 C 347.867188 198.304688 347.945312 199.578125 350.078125 198.535156 C 350.078125 198.535156 350.078125 198.539062 350.078125 198.539062 C 352.207031 193.855469 355.355469 189.535156 356.027344 184.335938 C 356.925781 184.34375 357.410156 184.867188 357.777344 185.53125 C 358.242188 188.730469 357.011719 191.953125 357.71875 195.605469 C 360.046875 194.023438 360.488281 192.179688 360.683594 190.132812 C 361.207031 184.664062 360.984375 179.210938 360.507812 173.757812 C 360.359375 172.074219 359.914062 170.390625 360.441406 168.660156 C 363.113281 171.359375 364.761719 174.71875 364.027344 179.527344 C 362.5625 189.125 363.105469 198.855469 361.308594 208.425781 C 359.972656 215.535156 358.167969 222.496094 355.203125 229.1875 L 355.199219 229.1875 L 355.199219 229.183594 C 355.015625 228.761719 354.828125 228.34375 354.65625 227.917969 C 354.453125 227.417969 354.597656 226.578125 353.683594 226.695312 C 352.925781 226.792969 352.796875 227.527344 352.777344 228.125 C 352.765625 228.558594 352.960938 228.996094 353.0625 229.433594 C 350.777344 231.144531 349.695312 233.597656 348.34375 235.886719 C 345.890625 241.488281 342.230469 246.589844 339.855469 252.167969 C 336.234375 260.679688 331.082031 268.316406 325.523438 275.761719 C 322.5625 279.726562 318.457031 282.886719 314.796875 286.265625 C 305.601562 294.757812 297.054688 303.921875 286.351562 310.964844 C 274.976562 318.449219 262.960938 324.757812 249.515625 328.574219 C 247.90625 329.027344 246.378906 329.753906 244.859375 330.445312 C 241.511719 331.972656 238.179688 333.460938 234.496094 334.296875 C 228.398438 335.675781 223.777344 339.59375 218.667969 342.625 C 217.394531 343.378906 218.277344 344.496094 219.460938 345.085938 C 219.421875 345.976562 218.726562 346.417969 218.023438 346.851562 C 218.027344 346.851562 218.027344 346.851562 218.03125 346.851562 C 218.027344 346.851562 218.027344 346.851562 218.023438 346.851562 C 213.417969 347.945312 208.804688 348.925781 204 348.015625 C 202.125 347.660156 200.300781 348.058594 198.453125 348.324219 C 183.09375 350.523438 168.042969 349.71875 153.371094 344.625 C 148.621094 342.976562 143.609375 341.984375 138.722656 340.769531 C 131.625 339.007812 124.917969 336.546875 118.316406 333.683594 C 115.5625 332.488281 112.757812 331.398438 109.972656 330.261719 C 109.183594 329.589844 108.382812 329.808594 107.574219 330.230469 L 107.578125 330.230469 L 107.574219 330.230469 C 105.433594 331.3125 103.953125 329.910156 102.71875 328.820312 C 98.890625 325.441406 94.132812 323.632812 89.433594 321.683594 C 86.253906 319.101562 81.628906 318.492188 78.980469 315.1875 C 78.042969 314.3125 77.160156 313.339844 75.636719 313.367188 C 74.390625 313.097656 72.199219 315.050781 72.085938 312.070312 C 72.070312 311.65625 71.851562 311.023438 71.523438 310.875 C 67.339844 309.003906 65.714844 304.894531 62.417969 302.199219 C 56.679688 297.5 52.585938 291.492188 48.335938 285.65625 C 45.878906 282.285156 43.441406 278.90625 40.992188 275.535156 C 38.101562 271.554688 36.601562 267.078125 36.0625 262.402344 Z M 350.648438 200.023438 C 351.695312 200.082031 352.039062 199.113281 351.65625 198.433594 C 351.308594 197.824219 350.597656 198.25 350.085938 198.601562 C 350.191406 199.136719 349.898438 199.984375 350.648438 200.023438 Z M 105.800781 301.621094 C 103.46875 299.59375 101.339844 297.328125 97.753906 296.71875 L 105.128906 302.441406 C 105.351562 302.167969 105.578125 301.894531 105.800781 301.621094 Z M 112.585938 308.425781 C 112.230469 308.21875 111.75 308.191406 111.28125 308.074219 C 111.316406 308.449219 111.234375 308.859375 111.382812 308.949219 C 111.746094 309.175781 112.292969 309.453125 112.628906 309.34375 C 113.195312 309.160156 112.96875 308.648438 112.585938 308.425781 Z M 192.703125 341.417969 C 191.679688 340.546875 190.734375 340.734375 189.792969 340.90625 C 187.925781 340.894531 186.058594 340.859375 184.191406 340.878906 C 178.246094 340.929688 172.382812 340.855469 166.539062 339.285156 C 163.851562 338.5625 161.207031 337.21875 158.230469 337.414062 C 154.136719 337.683594 150.097656 337.128906 146.046875 336.714844 C 144.261719 336.535156 142.394531 336.019531 140.488281 337.226562 C 141.492188 338.492188 142.84375 338.6875 144.082031 338.964844 C 148.871094 340.03125 153.425781 341.699219 158.070312 343.175781 C 166.730469 345.933594 175.605469 346.808594 184.429688 343.308594 C 185.636719 342.828125 187.0625 342.808594 188.386719 342.574219 C 190.132812 343.125 191.382812 342.382812 192.703125 341.417969 Z M 209.34375 330.777344 C 208.917969 329.992188 208.355469 330.25 207.886719 330.257812 C 186.433594 330.714844 165.066406 330.050781 143.917969 326.339844 C 143.25 326.210938 142.578125 326.144531 141.898438 326.148438 C 135.6875 326.269531 129.714844 325.695312 124.832031 321.578125 C 124.101562 320.960938 123.183594 320.449219 121.496094 320.929688 C 123.640625 323.929688 126.542969 325.457031 129.605469 326.789062 C 138.269531 330.558594 147.636719 332.320312 156.738281 334.835938 C 161.488281 336.144531 166.355469 336.519531 171.347656 336.238281 C 175.402344 336.007812 179.5 336.265625 183.570312 336.417969 C 188.667969 336.644531 193.761719 336.550781 198.847656 336.144531 C 200.027344 336.042969 201.914062 336.144531 202.242188 335.5625 C 203.78125 332.832031 207.066406 332.394531 209.34375 330.777344 Z M 140.546875 315.210938 C 140.546875 315.210938 140.601562 315.03125 140.601562 315.03125 C 139.464844 314.25 138.257812 314.089844 136.96875 314.683594 C 138.03125 315.585938 139.238281 315.695312 140.546875 315.210938 C 142.097656 316.179688 143.746094 316.675781 145.617188 316.101562 C 146.046875 316.289062 146.457031 316.5625 146.914062 316.652344 C 147.492188 316.765625 148.300781 317.011719 148.320312 316.082031 C 148.324219 315.921875 147.539062 315.644531 147.101562 315.605469 C 146.644531 315.566406 146.160156 315.746094 145.691406 315.832031 C 144.101562 314.996094 142.464844 314.402344 140.601562 315.03125 Z M 128.769531 313.410156 C 130.882812 314.4375 133.078125 314.957031 135.445312 314.242188 C 132.285156 312.480469 128.644531 311.742188 125.351562 310.203125 C 121.957031 308.617188 119.160156 305.988281 115.289062 305.078125 C 115.082031 306.613281 116.042969 307.191406 117.136719 307.722656 C 121.019531 309.609375 124.886719 311.523438 128.765625 313.410156 Z M 122.964844 314.210938 C 122.785156 314.285156 122.746094 314.632812 122.644531 314.859375 C 122.875 315 123.128906 315.273438 123.328125 315.242188 C 123.546875 315.210938 123.886719 314.890625 123.875 314.710938 C 123.84375 314.238281 123.449219 314.003906 122.960938 314.210938 Z M 116.867188 311.230469 C 116.65625 311.183594 116.449219 311.132812 116.238281 311.085938 C 116.4375 311.160156 116.636719 311.238281 116.835938 311.316406 C 117.714844 312.765625 118.933594 313.449219 120.933594 312.902344 C 119.808594 311.53125 118.429688 311.1875 116.867188 311.230469 Z M 136.875 314.664062 C 136.542969 314.296875 136.136719 314.171875 135.65625 314.285156 C 135.804688 314.460938 135.988281 314.582031 136.210938 314.648438 C 136.429688 314.71875 136.652344 314.722656 136.875 314.664062 Z M 292.191406 284.71875 C 293.277344 283.785156 294.183594 282.699219 294.902344 281.457031 C 284.074219 290.941406 271.539062 299.113281 257.441406 305.546875 C 252.8125 307.65625 248.128906 309.53125 243.390625 311.171875 C 248.238281 310.046875 252.957031 308.511719 257.539062 306.570312 C 270.4375 301.136719 281.738281 293.46875 292.191406 284.71875 Z M 38.886719 158.972656 C 40.058594 151.90625 41.800781 144.980469 44.105469 138.199219 C 43.46875 138.683594 42.828125 139.164062 42.21875 139.675781 C 36.496094 144.492188 35.441406 150.714844 38.238281 157.386719 C 38.460938 157.914062 38.667969 158.445312 38.886719 158.972656 Z M 61.972656 261.496094 C 62.0625 261.96875 62.484375 262.210938 63.089844 262.085938 C 63.902344 261.667969 64.132812 260.976562 63.835938 260.191406 C 63.652344 259.710938 63.152344 259.535156 62.65625 259.890625 C 62.390625 260.0625 62.195312 260.296875 62.070312 260.589844 C 61.945312 260.882812 61.914062 261.183594 61.972656 261.496094 Z M 81.863281 289.261719 C 78.339844 287.015625 76.75 283.820312 72.550781 281.652344 C 74.851562 286.988281 76.308594 288.15625 81.863281 289.261719 Z M 42.917969 247.648438 C 43.027344 247.253906 42.773438 247.027344 42.332031 247.078125 C 41.917969 247.128906 41.675781 247.398438 41.816406 247.753906 C 41.917969 248.007812 42.226562 248.195312 42.445312 248.410156 C 42.609375 248.160156 42.84375 247.921875 42.917969 247.648438 Z M 309.960938 298.03125 C 307.996094 300.160156 305.972656 301.390625 305.453125 303.753906 C 308.058594 302.984375 309.59375 301.386719 309.960938 298.03125 Z M 305.390625 303.777344 C 305.382812 303.796875 305.371094 303.808594 305.363281 303.828125 C 305.386719 303.816406 305.410156 303.804688 305.433594 303.796875 Z M 305.390625 303.777344 L 305.433594 303.796875 C 305.4375 303.78125 305.445312 303.769531 305.449219 303.753906 C 305.429688 303.761719 305.414062 303.773438 305.390625 303.777344 Z M 305.390625 303.777344 " clip-rule="nonzero"/></clipPath><linearGradient x1="960.682797" gradientTransform="matrix(0.195995, 0, 0, 0.195995, -7.62134, -7.88547)" y1="131.077412" x2="1044.976782" gradientUnits="userSpaceOnUse" y2="1870.196238" id="43323e164f"><stop stop-opacity="1" stop-color="rgb(49.026489%, 81.027222%, 18.57605%)" offset="0"/><stop stop-opacity="1" stop-color="rgb(48.63739%, 80.819702%, 18.701172%)" offset="0.00390625"/><stop stop-opacity="1" stop-color="rgb(48.248291%, 80.612183%, 18.82782%)" offset="0.0078125"/><stop stop-opacity="1" stop-color="rgb(47.859192%, 80.404663%, 18.952942%)" offset="0.0117188"/><stop stop-opacity="1" stop-color="rgb(47.470093%, 80.197144%, 19.07959%)" offset="0.015625"/><stop stop-opacity="1" stop-color="rgb(47.12677%, 80.012512%, 19.189453%)" offset="0.0195313"/><stop stop-opacity="1" stop-color="rgb(46.783447%, 79.829407%, 19.299316%)" offset="0.0234375"/><stop stop-opacity="1" stop-color="rgb(46.481323%, 79.667664%, 19.395447%)" offset="0.0273438"/><stop stop-opacity="1" stop-color="rgb(46.180725%, 79.507446%, 19.491577%)" offset="0.03125"/><stop stop-opacity="1" stop-color="rgb(45.878601%, 79.345703%, 19.586182%)" offset="0.0351563"/><stop stop-opacity="1" stop-color="rgb(45.578003%, 79.18396%, 19.682312%)" offset="0.0390625"/><stop stop-opacity="1" stop-color="rgb(45.277405%, 79.022217%, 19.778442%)" offset="0.0429688"/><stop stop-opacity="1" stop-color="rgb(44.976807%, 78.860474%, 19.874573%)" offset="0.046875"/><stop stop-opacity="1" stop-color="rgb(44.674683%, 78.69873%, 19.970703%)" offset="0.0507813"/><stop stop-opacity="1" stop-color="rgb(44.374084%, 78.536987%, 20.066833%)" offset="0.0546875"/><stop stop-opacity="1" stop-color="rgb(44.07196%, 78.375244%, 20.161438%)" offset="0.0585938"/><stop stop-opacity="1" stop-color="rgb(43.771362%, 78.213501%, 20.257568%)" offset="0.0625"/><stop stop-opacity="1" stop-color="rgb(43.469238%, 78.051758%, 20.353699%)" offset="0.0664062"/><stop stop-opacity="1" stop-color="rgb(43.16864%, 77.891541%, 20.449829%)" offset="0.0703125"/><stop stop-opacity="1" stop-color="rgb(42.866516%, 77.729797%, 20.545959%)" offset="0.0742187"/><stop stop-opacity="1" stop-color="rgb(42.565918%, 77.568054%, 20.64209%)" offset="0.078125"/><stop stop-opacity="1" stop-color="rgb(42.263794%, 77.406311%, 20.736694%)" offset="0.0820312"/><stop stop-opacity="1" stop-color="rgb(41.963196%, 77.244568%, 20.832825%)" offset="0.0859375"/><stop stop-opacity="1" stop-color="rgb(41.661072%, 77.082825%, 20.928955%)" offset="0.0898437"/><stop stop-opacity="1" stop-color="rgb(41.360474%, 76.921082%, 21.025085%)" offset="0.09375"/><stop stop-opacity="1" stop-color="rgb(41.05835%, 76.759338%, 21.121216%)" offset="0.0976562"/><stop stop-opacity="1" stop-color="rgb(40.757751%, 76.597595%, 21.217346%)" offset="0.101562"/><stop stop-opacity="1" stop-color="rgb(40.455627%, 76.435852%, 21.311951%)" offset="0.105469"/><stop stop-opacity="1" stop-color="rgb(40.155029%, 76.274109%, 21.408081%)" offset="0.109375"/><stop stop-opacity="1" stop-color="rgb(39.852905%, 76.112366%, 21.504211%)" offset="0.113281"/><stop stop-opacity="1" stop-color="rgb(39.552307%, 75.952148%, 21.600342%)" offset="0.117188"/><stop stop-opacity="1" stop-color="rgb(39.250183%, 75.790405%, 21.696472%)" offset="0.121094"/><stop stop-opacity="1" stop-color="rgb(38.949585%, 75.628662%, 21.792603%)" offset="0.125"/><stop stop-opacity="1" stop-color="rgb(38.647461%, 75.466919%, 21.887207%)" offset="0.128906"/><stop stop-opacity="1" stop-color="rgb(38.346863%, 75.305176%, 21.983337%)" offset="0.132812"/><stop stop-opacity="1" stop-color="rgb(38.044739%, 75.143433%, 22.079468%)" offset="0.136719"/><stop stop-opacity="1" stop-color="rgb(37.744141%, 74.981689%, 22.175598%)" offset="0.140625"/><stop stop-opacity="1" stop-color="rgb(37.443542%, 74.819946%, 22.271729%)" offset="0.144531"/><stop stop-opacity="1" stop-color="rgb(37.142944%, 74.658203%, 22.367859%)" offset="0.148438"/><stop stop-opacity="1" stop-color="rgb(36.84082%, 74.49646%, 22.462463%)" offset="0.152344"/><stop stop-opacity="1" stop-color="rgb(36.540222%, 74.336243%, 22.558594%)" offset="0.15625"/><stop stop-opacity="1" stop-color="rgb(36.25946%, 74.185181%, 22.647095%)" offset="0.160156"/><stop stop-opacity="1" stop-color="rgb(35.980225%, 74.034119%, 22.737122%)" offset="0.164063"/><stop stop-opacity="1" stop-color="rgb(35.760498%, 73.913574%, 22.808838%)" offset="0.167969"/><stop stop-opacity="1" stop-color="rgb(35.540771%, 73.794556%, 22.880554%)" offset="0.171875"/><stop stop-opacity="1" stop-color="rgb(35.321045%, 73.674011%, 22.952271%)" offset="0.175781"/><stop stop-opacity="1" stop-color="rgb(35.101318%, 73.553467%, 23.023987%)" offset="0.179688"/><stop stop-opacity="1" stop-color="rgb(34.881592%, 73.432922%, 23.095703%)" offset="0.183594"/><stop stop-opacity="1" stop-color="rgb(34.661865%, 73.313904%, 23.167419%)" offset="0.1875"/><stop stop-opacity="1" stop-color="rgb(34.442139%, 73.193359%, 23.239136%)" offset="0.191406"/><stop stop-opacity="1" stop-color="rgb(34.222412%, 73.072815%, 23.310852%)" offset="0.195313"/><stop stop-opacity="1" stop-color="rgb(34.002686%, 72.952271%, 23.382568%)" offset="0.199219"/><stop stop-opacity="1" stop-color="rgb(33.782959%, 72.833252%, 23.454285%)" offset="0.203125"/><stop stop-opacity="1" stop-color="rgb(33.561707%, 72.712708%, 23.524475%)" offset="0.207031"/><stop stop-opacity="1" stop-color="rgb(33.34198%, 72.592163%, 23.596191%)" offset="0.210938"/><stop stop-opacity="1" stop-color="rgb(33.122253%, 72.471619%, 23.667908%)" offset="0.214844"/><stop stop-opacity="1" stop-color="rgb(32.902527%, 72.3526%, 23.739624%)" offset="0.21875"/><stop stop-opacity="1" stop-color="rgb(32.6828%, 72.232056%, 23.81134%)" offset="0.222656"/><stop stop-opacity="1" stop-color="rgb(32.463074%, 72.111511%, 23.883057%)" offset="0.226563"/><stop stop-opacity="1" stop-color="rgb(32.243347%, 71.990967%, 23.954773%)" offset="0.230469"/><stop stop-opacity="1" stop-color="rgb(32.023621%, 71.871948%, 24.026489%)" offset="0.234375"/><stop stop-opacity="1" stop-color="rgb(31.803894%, 71.751404%, 24.098206%)" offset="0.238281"/><stop stop-opacity="1" stop-color="rgb(31.584167%, 71.630859%, 24.169922%)" offset="0.242188"/><stop stop-opacity="1" stop-color="rgb(31.364441%, 71.510315%, 24.240112%)" offset="0.246094"/><stop stop-opacity="1" stop-color="rgb(31.144714%, 71.391296%, 24.311829%)" offset="0.25"/><stop stop-opacity="1" stop-color="rgb(30.923462%, 71.270752%, 24.383545%)" offset="0.253906"/><stop stop-opacity="1" stop-color="rgb(30.703735%, 71.150208%, 24.455261%)" offset="0.257813"/><stop stop-opacity="1" stop-color="rgb(30.484009%, 71.029663%, 24.526978%)" offset="0.261719"/><stop stop-opacity="1" stop-color="rgb(30.264282%, 70.910645%, 24.598694%)" offset="0.265625"/><stop stop-opacity="1" stop-color="rgb(30.044556%, 70.7901%, 24.67041%)" offset="0.269531"/><stop stop-opacity="1" stop-color="rgb(29.824829%, 70.669556%, 24.742126%)" offset="0.273438"/><stop stop-opacity="1" stop-color="rgb(29.605103%, 70.549011%, 24.813843%)" offset="0.277344"/><stop stop-opacity="1" stop-color="rgb(29.385376%, 70.429993%, 24.885559%)" offset="0.28125"/><stop stop-opacity="1" stop-color="rgb(29.165649%, 70.309448%, 24.957275%)" offset="0.285156"/><stop stop-opacity="1" stop-color="rgb(28.945923%, 70.188904%, 25.028992%)" offset="0.289063"/><stop stop-opacity="1" stop-color="rgb(28.726196%, 70.068359%, 25.099182%)" offset="0.292969"/><stop stop-opacity="1" stop-color="rgb(28.50647%, 69.949341%, 25.170898%)" offset="0.296875"/><stop stop-opacity="1" stop-color="rgb(28.285217%, 69.828796%, 25.242615%)" offset="0.300781"/><stop stop-opacity="1" stop-color="rgb(28.065491%, 69.708252%, 25.314331%)" offset="0.304688"/><stop stop-opacity="1" stop-color="rgb(27.845764%, 69.587708%, 25.386047%)" offset="0.308594"/><stop stop-opacity="1" stop-color="rgb(27.626038%, 69.468689%, 25.457764%)" offset="0.3125"/><stop stop-opacity="1" stop-color="rgb(27.464294%, 69.381714%, 25.505066%)" offset="0.320313"/><stop stop-opacity="1" stop-color="rgb(27.165222%, 69.223022%, 25.588989%)" offset="0.328125"/><stop stop-opacity="1" stop-color="rgb(26.890564%, 69.07959%, 25.663757%)" offset="0.335938"/><stop stop-opacity="1" stop-color="rgb(26.615906%, 68.934631%, 25.738525%)" offset="0.34375"/><stop stop-opacity="1" stop-color="rgb(26.339722%, 68.789673%, 25.813293%)" offset="0.351563"/><stop stop-opacity="1" stop-color="rgb(26.065063%, 68.644714%, 25.888062%)" offset="0.359375"/><stop stop-opacity="1" stop-color="rgb(25.790405%, 68.501282%, 25.961304%)" offset="0.367188"/><stop stop-opacity="1" stop-color="rgb(25.514221%, 68.356323%, 26.036072%)" offset="0.375"/><stop stop-opacity="1" stop-color="rgb(25.239563%, 68.211365%, 26.11084%)" offset="0.382813"/><stop stop-opacity="1" stop-color="rgb(24.964905%, 68.066406%, 26.185608%)" offset="0.390625"/><stop stop-opacity="1" stop-color="rgb(24.688721%, 67.922974%, 26.260376%)" offset="0.398438"/><stop stop-opacity="1" stop-color="rgb(24.414062%, 67.778015%, 26.335144%)" offset="0.40625"/><stop stop-opacity="1" stop-color="rgb(24.139404%, 67.633057%, 26.409912%)" offset="0.414062"/><stop stop-opacity="1" stop-color="rgb(23.86322%, 67.488098%, 26.48468%)" offset="0.421875"/><stop stop-opacity="1" stop-color="rgb(23.588562%, 67.344666%, 26.559448%)" offset="0.429688"/><stop stop-opacity="1" stop-color="rgb(23.313904%, 67.199707%, 26.634216%)" offset="0.4375"/><stop stop-opacity="1" stop-color="rgb(23.03772%, 67.054749%, 26.708984%)" offset="0.445312"/><stop stop-opacity="1" stop-color="rgb(22.763062%, 66.90979%, 26.782227%)" offset="0.453125"/><stop stop-opacity="1" stop-color="rgb(22.488403%, 66.766357%, 26.856995%)" offset="0.460938"/><stop stop-opacity="1" stop-color="rgb(22.212219%, 66.621399%, 26.931763%)" offset="0.46875"/><stop stop-opacity="1" stop-color="rgb(21.937561%, 66.47644%, 27.006531%)" offset="0.476562"/><stop stop-opacity="1" stop-color="rgb(21.679688%, 66.340637%, 27.078247%)" offset="0.484375"/><stop stop-opacity="1" stop-color="rgb(21.41571%, 66.197205%, 27.154541%)" offset="0.5"/><stop stop-opacity="1" stop-color="rgb(21.125793%, 66.035461%, 27.243042%)" offset="0.515625"/><stop stop-opacity="1" stop-color="rgb(20.837402%, 65.875244%, 27.331543%)" offset="0.53125"/><stop stop-opacity="1" stop-color="rgb(20.549011%, 65.715027%, 27.420044%)" offset="0.546875"/><stop stop-opacity="1" stop-color="rgb(20.259094%, 65.55481%, 27.508545%)" offset="0.5625"/><stop stop-opacity="1" stop-color="rgb(19.970703%, 65.394592%, 27.597046%)" offset="0.578125"/><stop stop-opacity="1" stop-color="rgb(19.682312%, 65.232849%, 27.685547%)" offset="0.59375"/><stop stop-opacity="1" stop-color="rgb(19.392395%, 65.072632%, 27.772522%)" offset="0.609375"/><stop stop-opacity="1" stop-color="rgb(19.104004%, 64.912415%, 27.861023%)" offset="0.625"/><stop stop-opacity="1" stop-color="rgb(18.815613%, 64.752197%, 27.949524%)" offset="0.640625"/><stop stop-opacity="1" stop-color="rgb(18.525696%, 64.59198%, 28.038025%)" offset="0.65625"/><stop stop-opacity="1" stop-color="rgb(18.237305%, 64.430237%, 28.126526%)" offset="0.671875"/><stop stop-opacity="1" stop-color="rgb(18.025208%, 64.317322%, 28.192139%)" offset="0.6875"/><stop stop-opacity="1" stop-color="rgb(17.835999%, 64.239502%, 28.257751%)" offset="0.75"/><stop stop-opacity="1" stop-color="rgb(17.593384%, 64.151001%, 28.346252%)" offset="0.8125"/><stop stop-opacity="1" stop-color="rgb(17.350769%, 64.064026%, 28.434753%)" offset="0.875"/><stop stop-opacity="1" stop-color="rgb(17.063904%, 63.95874%, 28.538513%)" offset="0.949786"/><stop stop-opacity="1" stop-color="rgb(16.899109%, 63.899231%, 28.599548%)" offset="1"/></linearGradient></defs><g clip-path="url(#8980f401d6)"><g clip-path="url(#92954e5ff3)"><path fill="url(#43323e164f)" d="M 11.226562 26.019531 L 11.226562 350.523438 L 365.183594 350.523438 L 365.183594 26.019531 Z M 11.226562 26.019531 " fill-rule="nonzero"/></g></g><path fill="#000000" d="M 99.839844 185.652344 C 87.742188 185.652344 85.460938 179.804688 86.503906 170.910156 L 86.503906 170.835938 C 86.496094 170.671875 86.507812 170.511719 86.542969 170.351562 C 86.621094 169.832031 86.703125 169.269531 86.78125 168.75 C 86.828125 168.359375 86.898438 167.972656 86.984375 167.589844 C 87.382812 165.304688 88.0625 162.339844 88.824219 159.136719 C 89.148438 157.738281 89.507812 156.292969 89.824219 154.851562 C 91.425781 149.792969 92.363281 144.613281 92.628906 139.3125 C 92.492188 139.066406 92.292969 138.882812 92.03125 138.773438 C 91.769531 138.660156 91.503906 138.640625 91.230469 138.710938 C 89.027344 139.394531 86.96875 140.378906 85.058594 141.671875 C 83.136719 142.636719 81.011719 140.921875 80.132812 139.953125 C 79.679688 139.566406 79.285156 139.128906 78.953125 138.636719 C 78.621094 138.144531 78.359375 137.617188 78.167969 137.054688 C 77.980469 136.492188 77.871094 135.914062 77.839844 135.320312 C 77.808594 134.726562 77.859375 134.140625 77.988281 133.558594 C 78.117188 132.980469 78.324219 132.429688 78.605469 131.90625 C 78.886719 131.382812 79.230469 130.90625 79.644531 130.476562 C 80.054688 130.046875 80.515625 129.683594 81.027344 129.378906 C 81.539062 129.078125 82.085938 128.851562 82.65625 128.695312 C 84.820312 128.027344 86.730469 126.921875 88.386719 125.378906 C 90.90625 123.210938 90.796875 122.253906 94.03125 119.691406 C 95.089844 118.941406 96.265625 118.527344 97.558594 118.445312 C 98.796875 118.324219 111.375 117.722656 111.375 124.457031 C 111.375 129.179688 105.167969 135.949219 110.492188 157.738281 C 114.378906 173.566406 117.261719 185.652344 99.839844 185.652344 Z M 99.839844 185.652344 " fill-opacity="1" fill-rule="nonzero"/><path fill="#000000" d="M 171.273438 168.753906 C 166.101562 179.746094 156.578125 185.851562 141.78125 185.851562 C 115.59375 185.851562 109.574219 146.808594 122.183594 130.113281 C 122.761719 129.347656 123.378906 128.609375 124.027344 127.90625 C 124.679688 127.199219 125.363281 126.523438 126.078125 125.882812 C 126.792969 125.242188 127.535156 124.636719 128.308594 124.070312 C 129.082031 123.5 129.878906 122.96875 130.703125 122.472656 C 131.527344 121.980469 132.371094 121.527344 133.238281 121.117188 C 134.105469 120.707031 134.992188 120.335938 135.894531 120.007812 C 136.796875 119.679688 137.710938 119.398438 138.640625 119.160156 C 139.570312 118.917969 140.511719 118.726562 141.457031 118.574219 C 142.40625 118.425781 143.359375 118.324219 144.316406 118.265625 C 145.277344 118.207031 146.234375 118.195312 147.195312 118.230469 C 148.152344 118.261719 149.109375 118.34375 150.0625 118.46875 C 151.011719 118.59375 151.957031 118.765625 152.890625 118.980469 C 153.828125 119.195312 154.75 119.457031 155.660156 119.761719 C 156.570312 120.066406 157.464844 120.414062 158.34375 120.804688 C 159.21875 121.191406 160.074219 121.625 160.910156 122.097656 C 161.746094 122.570312 162.558594 123.078125 163.34375 123.628906 C 177.902344 136.15625 177.40625 155.714844 171.273438 168.753906 Z M 157.425781 141.617188 C 157.226562 131.410156 152.445312 128.929688 147.328125 128.453125 C 146.40625 128.464844 145.503906 128.585938 144.617188 128.824219 C 143.726562 129.058594 142.882812 129.398438 142.078125 129.847656 C 141.273438 130.292969 140.535156 130.832031 139.867188 131.460938 C 139.195312 132.089844 138.613281 132.789062 138.117188 133.5625 C 135.289062 138.550781 134.617188 152.824219 144.230469 158.828125 C 149.960938 162.402344 157.617188 151.890625 157.425781 141.617188 Z M 157.425781 141.617188 " fill-opacity="1" fill-rule="nonzero"/><path fill="#000000" d="M 235.722656 168.753906 C 230.550781 179.746094 221.027344 185.851562 206.230469 185.851562 C 180.042969 185.851562 174.023438 146.808594 186.632812 130.113281 C 187.214844 129.347656 187.828125 128.609375 188.476562 127.90625 C 189.128906 127.199219 189.8125 126.523438 190.527344 125.882812 C 191.238281 125.242188 191.984375 124.636719 192.757812 124.070312 C 193.53125 123.5 194.328125 122.96875 195.152344 122.476562 C 195.976562 121.980469 196.820312 121.527344 197.6875 121.117188 C 198.554688 120.707031 199.4375 120.335938 200.34375 120.007812 C 201.246094 119.679688 202.160156 119.398438 203.089844 119.160156 C 204.019531 118.917969 204.957031 118.726562 205.90625 118.574219 C 206.855469 118.425781 207.808594 118.324219 208.765625 118.265625 C 209.726562 118.207031 210.683594 118.195312 211.644531 118.230469 C 212.601562 118.261719 213.558594 118.34375 214.507812 118.46875 C 215.460938 118.59375 216.40625 118.765625 217.339844 118.980469 C 218.277344 119.195312 219.199219 119.457031 220.109375 119.761719 C 221.019531 120.066406 221.914062 120.414062 222.789062 120.804688 C 223.667969 121.191406 224.523438 121.625 225.359375 122.097656 C 226.195312 122.570312 227.007812 123.078125 227.792969 123.628906 C 242.351562 136.15625 241.855469 155.714844 235.722656 168.753906 Z M 221.875 141.617188 C 221.675781 131.410156 216.894531 128.929688 211.777344 128.453125 C 210.855469 128.464844 209.953125 128.585938 209.066406 128.824219 C 208.175781 129.058594 207.328125 129.398438 206.527344 129.847656 C 205.722656 130.292969 204.984375 130.828125 204.316406 131.457031 C 203.644531 132.085938 203.0625 132.789062 202.566406 133.5625 C 199.738281 138.546875 199.070312 152.820312 208.679688 158.828125 C 214.410156 162.402344 222.066406 151.890625 221.875 141.617188 Z M 221.875 141.617188 " fill-opacity="1" fill-rule="nonzero"/><path fill="#000000" d="M 274.359375 132.574219 C 274.53125 148.082031 259.699219 156.089844 250.839844 153.359375 C 241.980469 150.636719 243.589844 140.898438 244.53125 136.496094 C 245.070312 133.765625 245.960938 131.15625 247.207031 128.667969 C 248.449219 126.179688 250.003906 123.902344 251.863281 121.832031 C 257.144531 115.324219 274.183594 117.027344 274.359375 132.535156 Z M 267.414062 128.964844 C 267.449219 128.386719 267.398438 127.8125 267.261719 127.246094 C 267.125 126.683594 266.910156 126.148438 266.613281 125.648438 C 266.320312 125.148438 265.957031 124.699219 265.527344 124.308594 C 265.097656 123.914062 264.621094 123.59375 264.097656 123.34375 C 263.574219 123.09375 263.023438 122.921875 262.449219 122.835938 C 261.871094 122.75 261.296875 122.75 260.722656 122.835938 C 260.148438 122.921875 259.597656 123.089844 259.070312 123.335938 C 258.546875 123.585938 258.070312 123.90625 257.640625 124.300781 C 255.988281 126.128906 254.921875 128.253906 254.4375 130.671875 C 254.035156 132.582031 253.328125 136.8125 257.175781 137.996094 C 257.5 138.050781 257.824219 138.089844 258.148438 138.105469 C 258.476562 138.125 258.800781 138.125 259.128906 138.105469 C 259.453125 138.085938 259.777344 138.050781 260.101562 137.996094 C 260.421875 137.941406 260.742188 137.871094 261.054688 137.78125 C 261.367188 137.691406 261.675781 137.582031 261.980469 137.460938 C 262.28125 137.335938 262.574219 137.195312 262.863281 137.035156 C 263.148438 136.878906 263.425781 136.707031 263.691406 136.519531 C 263.960938 136.332031 264.214844 136.128906 264.460938 135.914062 C 264.703125 135.695312 264.9375 135.464844 265.15625 135.222656 C 265.375 134.980469 265.578125 134.726562 265.769531 134.460938 C 265.960938 134.195312 266.136719 133.921875 266.296875 133.636719 C 266.457031 133.351562 266.601562 133.058594 266.726562 132.757812 C 266.855469 132.457031 266.964844 132.152344 267.058594 131.835938 C 267.152344 131.523438 267.226562 131.207031 267.285156 130.886719 C 267.34375 130.5625 267.382812 130.238281 267.402344 129.914062 C 267.425781 129.585938 267.429688 129.261719 267.414062 128.933594 Z M 289.40625 141.960938 C 282.332031 154.457031 275.992188 167.316406 270.386719 180.535156 C 266.898438 189.691406 257.597656 182.496094 261.871094 174.128906 C 266.140625 165.761719 283.003906 133.332031 290.398438 120.722656 C 295.765625 111.566406 299.292969 116.527344 300.214844 121.070312 C 300.617188 122.996094 299.074219 127.332031 289.40625 141.960938 Z M 314.082031 161.007812 C 314.25 176.515625 299.425781 184.523438 290.5625 181.800781 C 281.699219 179.070312 283.308594 169.332031 284.257812 164.929688 C 284.792969 162.199219 285.683594 159.59375 286.929688 157.105469 C 288.171875 154.617188 289.726562 152.339844 291.585938 150.273438 C 296.871094 143.773438 313.914062 145.476562 314.082031 160.988281 Z M 307.136719 157.40625 C 307.171875 156.824219 307.121094 156.253906 306.984375 155.6875 C 306.847656 155.121094 306.632812 154.589844 306.335938 154.089844 C 306.039062 153.589844 305.679688 153.140625 305.25 152.75 C 304.820312 152.355469 304.34375 152.035156 303.820312 151.785156 C 303.296875 151.53125 302.746094 151.363281 302.171875 151.277344 C 301.59375 151.191406 301.019531 151.191406 300.445312 151.277344 C 299.871094 151.363281 299.320312 151.527344 298.792969 151.777344 C 298.269531 152.027344 297.792969 152.347656 297.363281 152.742188 C 295.714844 154.570312 294.65625 156.695312 294.183594 159.109375 C 293.78125 161.019531 293.070312 165.253906 296.917969 166.4375 C 297.5625 166.546875 298.210938 166.582031 298.867188 166.542969 C 299.519531 166.503906 300.160156 166.394531 300.789062 166.214844 C 301.417969 166.035156 302.019531 165.785156 302.589844 165.46875 C 303.164062 165.15625 303.695312 164.78125 304.1875 164.347656 C 304.675781 163.914062 305.113281 163.429688 305.492188 162.898438 C 305.875 162.367188 306.195312 161.800781 306.449219 161.199219 C 306.703125 160.59375 306.890625 159.972656 307.003906 159.328125 C 307.121094 158.683594 307.164062 158.035156 307.136719 157.382812 Z M 307.136719 157.40625 " fill-opacity="1" fill-rule="nonzero"/><path fill="#000000" d="M 95.699219 207.789062 C 88.109375 206.546875 92.394531 222.632812 104.152344 219.5 C 114.707031 216.695312 115.253906 232.933594 108.03125 231.726562 C 97.738281 230.003906 96.179688 234.464844 95.855469 238.902344 C 95.4375 241.082031 95.441406 243.261719 95.863281 245.4375 C 96.289062 247.617188 97.105469 249.636719 98.3125 251.5 C 102.769531 263.175781 68.96875 265.492188 75.074219 247.40625 C 81.003906 229.878906 73.851562 215.941406 75.222656 206.492188 C 76.597656 197.042969 89.460938 199.160156 104.835938 201.257812 C 114.972656 202.640625 112.289062 210.933594 106.90625 212.628906 C 101.457031 214.339844 102.757812 208.941406 95.699219 207.789062 Z M 95.699219 207.789062 " fill-opacity="1" fill-rule="nonzero"/><path fill="#000000" d="M 157.175781 260.574219 C 148.039062 260.574219 149.265625 252.734375 144.863281 243.527344 C 144.542969 242.695312 144.113281 241.921875 143.578125 241.210938 C 143.042969 240.5 142.417969 239.875 141.707031 239.339844 C 140.992188 238.804688 140.222656 238.375 139.390625 238.058594 C 138.558594 237.738281 137.699219 237.539062 136.808594 237.460938 C 139.988281 250.679688 141.613281 260.574219 126.699219 260.574219 C 110.992188 260.574219 113.59375 249.664062 117.058594 235.40625 C 121.898438 215.722656 116.300781 209.660156 116.300781 205.394531 C 116.300781 199.332031 126.699219 199.945312 126.699219 199.945312 C 134.890625 198.761719 142.988281 199.203125 151 201.28125 C 154.796875 202.355469 158.070312 204.304688 160.824219 207.128906 L 160.824219 207.167969 C 161.636719 208.089844 162.347656 209.085938 162.957031 210.15625 C 163.5625 211.226562 164.054688 212.347656 164.433594 213.519531 C 164.808594 214.691406 165.058594 215.886719 165.1875 217.109375 C 165.316406 218.335938 165.316406 219.558594 165.191406 220.78125 C 164.613281 232.371094 158.726562 237.390625 151.792969 238.292969 C 154.539062 240.566406 157.390625 242.695312 159.738281 244.429688 C 166.710938 249.488281 172.558594 260.574219 157.175781 260.574219 Z M 152.207031 212.214844 C 150.105469 205.847656 133.441406 205.777344 134.382812 210.109375 C 135.917969 217.179688 133.785156 217.839844 136.382812 219.285156 C 140.164062 221.402344 154.308594 218.589844 152.207031 212.214844 Z M 152.207031 212.214844 " fill-opacity="1" fill-rule="nonzero"/><path fill="#000000" d="M 188.988281 207.789062 C 181.320312 208.242188 186.578125 227.777344 197.292969 222 C 204.386719 218.191406 208.53125 231.226562 201.902344 234.332031 C 195.28125 237.4375 191.167969 230.296875 189.320312 239.054688 C 187.476562 247.8125 196.375 243.667969 200.175781 241.246094 C 206.613281 237.15625 217.75 234.632812 217.808594 248.160156 C 217.871094 263.40625 163.78125 265.492188 169.886719 247.40625 C 175.816406 229.878906 168.65625 215.941406 170.039062 206.492188 C 171.421875 197.042969 186.148438 199.394531 201.519531 201.488281 C 211.660156 202.871094 208.972656 211.167969 203.59375 212.859375 C 198.144531 214.570312 198.0625 207.246094 188.988281 207.789062 Z M 188.988281 207.789062 " fill-opacity="1" fill-rule="nonzero"/><path fill="#000000" d="M 265.882812 240.960938 L 265.847656 240.960938 C 265.519531 249.082031 258.804688 260.640625 240.460938 260.640625 C 228.945312 260.640625 218.726562 254.570312 218.726562 241.933594 C 218.71875 241.394531 218.765625 240.863281 218.875 240.335938 C 218.980469 239.808594 219.140625 239.300781 219.355469 238.808594 C 219.574219 238.316406 219.839844 237.851562 220.152344 237.414062 C 220.46875 236.980469 220.824219 236.582031 221.226562 236.222656 C 221.625 235.863281 222.058594 235.550781 222.527344 235.285156 C 222.992188 235.019531 223.484375 234.804688 223.996094 234.644531 C 224.507812 234.480469 225.03125 234.375 225.570312 234.328125 C 226.105469 234.277344 226.636719 234.285156 227.171875 234.351562 C 232.472656 235.273438 231.898438 237.589844 236.953125 239.628906 C 251.757812 245.574219 246.753906 235.8125 228.648438 229.351562 C 215.789062 224.769531 219.785156 214.261719 222.800781 210.398438 C 234.390625 195.507812 248.238281 199.855469 256.449219 202.855469 C 264.664062 205.847656 265.117188 217.523438 260.0625 220.449219 C 259.625 220.722656 259.164062 220.953125 258.683594 221.140625 C 258.203125 221.328125 257.710938 221.46875 257.203125 221.566406 C 256.695312 221.664062 256.183594 221.710938 255.667969 221.714844 C 255.148438 221.714844 254.636719 221.671875 254.128906 221.578125 C 253.621094 221.484375 253.125 221.347656 252.644531 221.164062 C 252.160156 220.980469 251.699219 220.753906 251.257812 220.484375 C 250.820312 220.214844 250.40625 219.90625 250.023438 219.5625 C 249.640625 219.214844 249.289062 218.835938 248.976562 218.425781 C 246.957031 215.5625 238.621094 209.363281 236.09375 211.226562 C 233.078125 213.441406 232.242188 223.109375 250.113281 225.167969 C 267.988281 227.265625 265.882812 240.960938 265.882812 240.960938 Z M 265.882812 240.960938 " fill-opacity="1" fill-rule="nonzero"/><path fill="#000000" d="M 317.257812 260.023438 C 299.300781 263.722656 299.441406 247.851562 304.691406 237.480469 C 309.941406 227.113281 297.617188 227.914062 297.617188 227.914062 C 297.617188 227.914062 285.292969 227.113281 290.542969 237.480469 C 295.792969 247.851562 295.933594 263.722656 277.972656 260.023438 C 268.273438 258.027344 264.695312 249.027344 270.472656 235.40625 C 279.089844 215.125 271.453125 211.550781 271.421875 207.285156 C 271.359375 200.363281 279.1875 199.957031 279.1875 199.957031 C 292.40625 199.957031 292.238281 207.835938 288.9375 214.660156 C 285.351562 222.042969 297.625 222.84375 297.625 222.84375 C 297.625 222.84375 309.886719 222.042969 306.316406 214.660156 C 303.019531 207.835938 302.855469 199.957031 316.0625 199.957031 C 316.0625 199.957031 323.894531 200.363281 323.835938 207.285156 C 323.796875 211.550781 316.15625 215.125 324.777344 235.40625 C 330.554688 249.023438 326.960938 258.027344 317.257812 260.023438 Z M 317.257812 260.023438 " fill-opacity="1" fill-rule="nonzero"/><path fill="#000000" d="M 220.425781 56.675781 C 219.917969 55.988281 218.953125 55.785156 218.300781 56.230469 C 214.890625 58.578125 206.050781 66.550781 216.261719 81.171875 C 216.816406 81.964844 217.949219 82.144531 218.582031 81.523438 C 221.785156 78.375 229.425781 68.882812 220.425781 56.675781 Z M 217.675781 79.1875 C 218.761719 72.671875 218.667969 60.578125 218.667969 60.578125 C 220.996094 66.878906 217.675781 79.1875 217.675781 79.1875 Z M 217.675781 79.1875 " fill-opacity="1" fill-rule="nonzero"/><path fill="#000000" d="M 191.84375 79.394531 C 184.621094 76.601562 177.136719 74.648438 169.609375 72.878906 L 163.914062 71.734375 C 162.007812 71.390625 160.074219 71.238281 158.152344 70.964844 C 154.308594 70.199219 150.414062 70.34375 146.488281 69.867188 C 154.277344 68.976562 162.261719 68.984375 170.089844 70.203125 C 177.953125 71.351562 185.609375 73.308594 193.058594 76.074219 C 200.460938 78.855469 207.675781 82.136719 214.484375 86.121094 C 221.292969 90.089844 227.875 94.484375 233.75 99.71875 C 230.371094 97.710938 227.039062 95.683594 223.566406 93.898438 C 220.167969 91.992188 216.71875 90.199219 213.214844 88.511719 C 206.207031 85.15625 199.113281 82.03125 191.84375 79.394531 Z M 191.84375 79.394531 " fill-opacity="1" fill-rule="nonzero"/><path fill="#000000" d="M 168.417969 65.457031 C 168.578125 61.839844 167.871094 52.027344 155.835938 49.765625 C 155.160156 49.636719 154.476562 50.046875 154.339844 50.671875 C 153.613281 53.933594 152.777344 63.507812 166.855469 66.527344 C 167.617188 66.691406 168.386719 66.175781 168.417969 65.457031 Z M 166.597656 64.578125 C 163.65625 60.132812 156.945312 53.035156 156.945312 53.035156 C 161.789062 55.480469 166.597656 64.578125 166.597656 64.578125 Z M 166.597656 64.578125 " fill-opacity="1" fill-rule="nonzero"/><path fill="#000000" d="M 187.199219 67.90625 C 188.511719 64.117188 190.867188 53.472656 178.804688 47.265625 C 178.125 46.914062 177.269531 47.136719 176.925781 47.753906 C 175.125 50.988281 171.207031 60.886719 185.199219 68.546875 C 185.957031 68.964844 186.9375 68.65625 187.199219 67.90625 Z M 185.542969 66.398438 C 183.824219 60.746094 178.945312 51.089844 178.945312 51.089844 C 183.3125 55.214844 185.542969 66.398438 185.542969 66.398438 Z M 185.542969 66.398438 " fill-opacity="1" fill-rule="nonzero"/><path fill="#000000" d="M 202.640625 74.824219 C 205.558594 71.414062 212.347656 61.296875 202.328125 49.910156 C 201.761719 49.269531 200.78125 49.152344 200.171875 49.652344 C 196.976562 52.285156 188.859375 60.992188 200.300781 74.675781 C 200.917969 75.417969 202.066406 75.5 202.640625 74.824219 Z M 201.535156 72.574219 C 202.054688 65.992188 200.914062 53.953125 200.914062 53.953125 C 203.777344 60.027344 201.535156 72.574219 201.535156 72.574219 Z M 201.535156 72.574219 " fill-opacity="1" fill-rule="nonzero"/><path fill="#000000" d="M 195.085938 109.320312 C 195.035156 110.175781 195.644531 110.949219 196.429688 111.023438 C 200.550781 111.414062 212.449219 110.964844 213.988281 93.195312 C 214.074219 92.234375 213.320312 91.367188 212.433594 91.4375 C 207.960938 91.800781 196.011719 94.183594 195.085938 109.320312 Z M 198.9375 107.453125 C 201.191406 101.125 211.632812 93.8125 211.632812 93.8125 C 206.621094 98.113281 198.9375 107.453125 198.9375 107.453125 Z M 198.9375 107.453125 " fill-opacity="1" fill-rule="nonzero"/><path fill="#000000" d="M 178.792969 102.347656 C 178.738281 103.199219 179.351562 103.972656 180.136719 104.046875 C 184.257812 104.4375 196.152344 103.988281 197.695312 86.21875 C 197.78125 85.257812 197.023438 84.390625 196.140625 84.460938 C 191.667969 84.824219 179.714844 87.207031 178.792969 102.347656 Z M 182.644531 100.476562 C 184.898438 94.152344 195.335938 86.835938 195.335938 86.835938 C 190.328125 91.136719 182.644531 100.476562 182.644531 100.476562 Z M 182.644531 100.476562 " fill-opacity="1" fill-rule="nonzero"/><path fill="#000000" d="M 147.050781 83.347656 C 149.554688 84.972656 157.304688 88.65625 164.222656 77.816406 C 164.597656 77.230469 164.40625 76.425781 163.816406 76.175781 C 160.835938 74.910156 152.402344 72.445312 146.757812 81.808594 C 146.597656 82.066406 146.542969 82.339844 146.601562 82.636719 C 146.65625 82.933594 146.804688 83.167969 147.050781 83.347656 Z M 149.84375 81.902344 C 153.398438 78.613281 162.511719 77.421875 162.511719 77.421875 C 157.871094 78.5 149.84375 81.902344 149.84375 81.902344 Z M 149.84375 81.902344 " fill-opacity="1" fill-rule="nonzero"/><path fill="#000000" d="M 161.457031 95.839844 C 161.40625 96.65625 161.988281 97.398438 162.742188 97.46875 C 166.683594 97.839844 178.066406 97.410156 179.539062 80.410156 C 179.621094 79.492188 178.898438 78.664062 178.050781 78.730469 C 173.773438 79.074219 162.339844 81.355469 161.457031 95.839844 Z M 165.140625 94.050781 C 167.296875 88 177.285156 81 177.285156 81 C 172.492188 85.117188 165.140625 94.050781 165.140625 94.050781 Z M 165.140625 94.050781 " fill-opacity="1" fill-rule="nonzero"/></svg>