<svg xmlns="http://www.w3.org/2000/svg" xmlns:xlink="http://www.w3.org/1999/xlink" width="500" zoomAndPan="magnify" viewBox="0 0 375 374.999991" height="500" preserveAspectRatio="xMidYMid meet" version="1.0"><defs><clipPath id="f68376fa2a"><path d="M 0 16 L 375 16 L 375 359 L 0 359 Z M 0 16 " clip-rule="nonzero"/></clipPath><clipPath id="03b660ea90"><path d="M 46.429688 78.199219 C 46.375 78.367188 46.316406 78.53125 46.261719 78.699219 C 46.242188 78.605469 46.175781 78.492188 46.214844 78.421875 C 46.273438 78.335938 46.34375 78.261719 46.429688 78.199219 Z M 223.953125 24.867188 C 227.421875 25.597656 230.757812 26.964844 234.476562 26.753906 C 231.601562 24.4375 228.355469 23.179688 224.550781 23.289062 C 223.101562 23.089844 221.605469 22.652344 220.039062 23.914062 C 221.5 24.660156 222.667969 24.953125 223.953125 24.867188 Z M 46.457031 78.113281 C 46.449219 78.140625 46.4375 78.171875 46.429688 78.199219 C 46.457031 78.175781 46.476562 78.148438 46.5 78.125 Z M 226.675781 357.25 C 226.449219 357.28125 226.285156 357.699219 226.007812 358.050781 C 226.582031 358.132812 227.09375 358.273438 227.597656 358.265625 C 228.21875 358.257812 228.613281 357.867188 228.117188 357.414062 C 227.839844 357.15625 227.152344 357.183594 226.675781 357.25 Z M 43.460938 83.890625 C 43.777344 83.535156 43.878906 83.015625 44.074219 82.570312 C 44.417969 82.304688 44.484375 81.789062 44.171875 81.753906 C 43.234375 81.652344 43.027344 82.316406 43 83.03125 C 42.375 83.339844 41.480469 83.785156 41.964844 84.421875 C 42.59375 85.246094 43.101562 84.300781 43.460938 83.890625 Z M 46.527344 78.074219 C 46.5 78.085938 46.484375 78.105469 46.457031 78.113281 L 46.5 78.125 C 46.507812 78.105469 46.519531 78.09375 46.527344 78.074219 Z M 46.527344 78.074219 C 48.367188 72.898438 52.519531 69.320312 56.644531 65.71875 C 59.378906 64.386719 61.300781 62.171875 62.8125 59.886719 C 64.125 57.910156 65.882812 56.886719 67.945312 55.984375 C 74.550781 50.121094 81.085938 44.1875 89.328125 38.816406 C 88.0625 44.191406 82.707031 44.878906 80.058594 48.015625 C 77.492188 51.058594 73.734375 53.25 70.5 55.816406 L 70.496094 55.816406 C 70.496094 55.816406 70.5 55.816406 70.5 55.816406 C 66.246094 59.738281 61.992188 63.660156 57.738281 67.578125 C 57.722656 67.574219 57.722656 67.5625 57.703125 67.554688 C 57.777344 68.074219 57.554688 68.472656 57.082031 68.765625 C 56.78125 68.933594 56.476562 69.105469 56.175781 69.277344 C 55.886719 69.472656 55.566406 69.574219 55.21875 69.570312 C 54.296875 70.542969 54.855469 72.53125 52.425781 72.59375 C 51.734375 72.613281 48.824219 73.355469 51.308594 75.382812 C 51.851562 75.828125 50.660156 76.433594 50.085938 76.378906 C 48.429688 76.214844 47.738281 77.582031 46.527344 78.074219 Z M 57.710938 67.503906 C 57.710938 67.515625 57.707031 67.519531 57.707031 67.527344 L 57.738281 67.578125 C 57.738281 67.578125 57.710938 67.503906 57.710938 67.503906 Z M 354.550781 117.121094 C 354.546875 120.015625 355.980469 122.359375 358.359375 125.523438 C 357.160156 121.886719 356.300781 119.292969 355.441406 116.695312 C 354.839844 115.433594 354.710938 113.902344 352.957031 113.109375 C 352.9375 114.71875 353.867188 115.878906 354.550781 117.121094 Z M 337.949219 282.976562 C 339.050781 281.820312 339.722656 280.644531 339.148438 278.8125 C 337.824219 280.972656 337.824219 280.972656 337.949219 282.976562 Z M 374.054688 208.703125 C 374.292969 208.90625 374.527344 209.105469 374.765625 209.308594 C 374.832031 209.160156 375.003906 208.945312 374.949219 208.875 C 374.742188 208.648438 374.515625 208.445312 374.269531 208.257812 C 374.195312 208.40625 374.125 208.554688 374.054688 208.703125 Z M 334.902344 284.945312 C 331.109375 287.351562 330.960938 287.519531 329.320312 291.4375 C 331.484375 289.675781 333.453125 287.769531 334.898438 284.945312 Z M 218.695312 17.335938 C 216.023438 16.058594 214.007812 16.214844 211.976562 16.421875 C 213.683594 17.789062 215.625 18.015625 218.695312 17.335938 Z M 189.019531 348.933594 C 189.015625 349.867188 188.210938 350.238281 187.535156 350.699219 C 188.816406 350.667969 189.964844 350.542969 189.019531 348.933594 Z M 318.679688 301.40625 C 321.9375 300.773438 323.316406 298.441406 324.535156 295.960938 C 325.730469 295.300781 327.589844 295.082031 326.847656 293.011719 C 325.554688 293.695312 324.644531 294.558594 324.433594 295.921875 C 321.621094 296.960938 320.585938 299.570312 318.679688 301.40625 Z M 39.902344 89.011719 C 39.84375 88.871094 39.269531 88.726562 39.160156 88.820312 C 38.835938 89.070312 38.605469 89.386719 38.464844 89.769531 C 38.324219 90.15625 38.300781 90.546875 38.390625 90.949219 C 38.667969 91 39.050781 91.179688 39.199219 91.074219 C 39.941406 90.558594 40.238281 89.835938 39.902344 89.011719 Z M 325.316406 73.273438 C 333.597656 81.554688 341.835938 89.746094 346.796875 100.226562 C 347.933594 102.625 349.375 104.902344 350.679688 107.230469 C 351.238281 108.226562 351.738281 109.925781 353.144531 109.285156 C 354.917969 108.476562 353.691406 106.910156 352.964844 105.917969 C 350.855469 103.035156 348.859375 100.117188 347.371094 96.917969 C 346.386719 94.808594 345.53125 92.632812 344.371094 90.605469 C 338.375 80.105469 329.765625 71.511719 320.535156 63.402344 C 314.851562 58.410156 309.316406 53.320312 302.675781 49.246094 C 298.097656 46.4375 294.164062 42.691406 289.613281 39.738281 C 286.34375 37.621094 282.792969 36.171875 278.0625 35.558594 C 279.75 37.871094 281.539062 38.714844 283.148438 39.664062 C 298.984375 48.992188 312.625 60.582031 325.316406 73.273438 Z M 341.601562 275.328125 C 341.707031 275.398438 341.851562 275.546875 341.921875 275.523438 C 342.183594 275.457031 342.414062 275.332031 342.609375 275.144531 C 342.796875 274.90625 342.589844 274.730469 342.171875 274.730469 C 341.980469 274.929688 341.792969 275.128906 341.601562 275.328125 Z M 111.84375 317.539062 L 111.8125 317.628906 Z M 288.089844 49.890625 L 288.105469 49.921875 C 288.125 49.921875 288.136719 49.925781 288.15625 49.925781 Z M 283.304688 47.640625 C 283.519531 47.164062 283.738281 46.683594 283.953125 46.207031 C 271.820312 36.925781 258.261719 30.039062 243.429688 25.039062 C 235.871094 22.492188 228.003906 20.839844 220.058594 17.953125 C 221.414062 16.558594 222.746094 16.914062 224.007812 17.140625 C 234.066406 18.960938 243.976562 21.253906 253.5625 24.65625 C 262.742188 27.914062 270.53125 33.277344 278.210938 38.6875 C 282.613281 41.789062 286.75 45.238281 291.222656 48.289062 C 292.078125 48.871094 293.195312 49.421875 292.582031 50.597656 C 292.140625 51.441406 290.953125 51.082031 290.140625 51.371094 C 290.363281 51.574219 290.496094 51.828125 290.539062 52.128906 C 289.914062 51.964844 289.707031 51.542969 289.546875 51.089844 C 289.078125 50.703125 288.8125 50.085938 288.152344 49.921875 L 288.15625 49.925781 C 288.148438 49.921875 288.144531 49.917969 288.136719 49.914062 C 288.117188 49.910156 288.109375 49.894531 288.089844 49.890625 C 288.101562 49.890625 288.105469 49.898438 288.117188 49.898438 C 287.289062 49.445312 286.550781 48.878906 285.902344 48.191406 C 285.078125 47.808594 284.214844 47.625 283.304688 47.640625 Z M 287.703125 49.042969 C 287.683594 49.03125 287.664062 49.023438 287.644531 49.015625 C 287.8125 49.316406 287.976562 49.617188 288.148438 49.910156 C 288.542969 49.929688 288.902344 50.050781 289.226562 50.28125 C 289.125 50.066406 288.976562 49.894531 288.777344 49.765625 C 288.449219 49.480469 288.089844 49.242188 287.703125 49.042969 Z M 362.191406 231.734375 C 361.902344 232.191406 361.605469 232.640625 361.304688 233.085938 C 361.519531 232.398438 361.6875 231.703125 361.8125 230.992188 C 361.195312 232.523438 360.054688 233.882812 359.511719 235.433594 C 358.726562 236.359375 357.832031 237.15625 356.820312 237.824219 C 357.628906 237.644531 358.433594 237.285156 359.246094 237.804688 C 357.332031 239.445312 356.863281 241.488281 357.160156 243.773438 C 360.46875 239.84375 362.816406 235.527344 364.074219 230.730469 C 362.886719 230.160156 362.429688 230.761719 362.191406 231.734375 Z M 281.84375 47.234375 C 277.933594 45.460938 274.242188 43.082031 269.421875 43.316406 C 269.628906 45.648438 271.425781 46.050781 273.121094 46.523438 C 275.851562 47.28125 278.597656 48.003906 281.335938 48.742188 C 280.53125 47.960938 280.855469 47.503906 281.84375 47.234375 Z M 218.90625 355.226562 C 222.503906 355.398438 226.0625 355.074219 229.601562 354.519531 C 233.15625 354.101562 236.714844 353.703125 240.265625 353.257812 C 246.679688 352.457031 251.792969 348.808594 257.542969 346.554688 L 257.546875 346.554688 C 258.445312 346.722656 259.304688 346.601562 260.125 346.191406 C 269.375 341.972656 278.625 337.753906 287.875 333.53125 C 288.691406 333.160156 289.339844 332.625 289.707031 331.835938 L 289.707031 331.832031 C 294.238281 329.289062 298.199219 326.1875 301.027344 321.988281 C 302.355469 320.464844 303.761719 318.992188 304.988281 317.402344 C 307.019531 314.777344 310.027344 312.828125 311.332031 309.707031 C 310.011719 310.175781 308.765625 310.722656 307.832031 311.773438 C 304.796875 315.207031 301.722656 318.609375 298.664062 322.027344 C 298.660156 322.027344 298.660156 322.027344 298.660156 322.03125 C 291.507812 328.304688 283.636719 333.636719 274.707031 337.597656 C 271.117188 338.429688 268.527344 341.171875 264.90625 341.945312 C 260.101562 343.746094 254.945312 344.738281 250.488281 347.347656 C 246.332031 349.785156 241.738281 351.105469 236.867188 351.726562 C 234.925781 351.976562 233.023438 352.46875 231.101562 352.855469 L 220.421875 353.359375 C 221.371094 354.980469 220.273438 355.195312 218.90625 355.226562 Z M 1.691406 145.816406 C 1.671875 145.722656 1.089844 145.597656 0.90625 145.695312 C 0.613281 145.84375 0.394531 146.0625 0.246094 146.351562 C 0.09375 146.640625 0.0429688 146.945312 0.09375 147.269531 C 0.375 147.3125 0.738281 147.480469 0.925781 147.375 C 1.550781 147.042969 1.839844 146.476562 1.691406 145.816406 Z M 142.347656 322.40625 L 142.308594 322.550781 C 142.328125 322.476562 142.347656 322.40625 142.347656 322.40625 Z M 142.308594 322.550781 L 142.265625 322.691406 C 142.265625 322.691406 142.289062 322.621094 142.308594 322.550781 Z M 366.800781 184.546875 C 367.6875 177.761719 368.339844 170.984375 365.835938 164.335938 C 365.734375 157.992188 365.03125 151.6875 364.097656 145.417969 C 363.429688 140.910156 362.277344 136.480469 360.414062 132.238281 C 361.0625 130.203125 359.609375 128.972656 358.242188 127.691406 C 358.535156 129.074219 358.824219 130.457031 359.117188 131.839844 C 362.492188 142.246094 362.945312 153.046875 364.191406 163.742188 C 364.445312 170.253906 364.695312 176.765625 364.949219 183.28125 C 366.53125 182.511719 366.984375 183.132812 366.800781 184.546875 Z M 102.585938 337.867188 C 102.441406 337.671875 102.25 337.597656 102.011719 337.636719 C 102.144531 337.742188 102.277344 337.847656 102.410156 337.949219 C 102.207031 338.054688 102.007812 338.164062 101.796875 338.246094 C 101.105469 338.644531 100.363281 338.792969 99.570312 338.695312 C 98.128906 337.917969 96.6875 337.144531 95.246094 336.371094 C 92.082031 334.0625 88.523438 332.382812 84.96875 330.695312 C 84.277344 330.300781 83.566406 329.9375 82.878906 329.53125 C 82.765625 329.480469 82.671875 329.402344 82.558594 329.347656 C 82.644531 329.097656 82.726562 328.847656 82.8125 328.597656 C 82.496094 328.664062 82.21875 328.804688 81.972656 329.015625 C 80.648438 328.28125 79.449219 327.359375 78.011719 326.78125 C 75.359375 325.707031 72.527344 324.78125 71.753906 321.726562 C 71.574219 322.164062 71.507812 322.617188 71.542969 323.089844 C 71.386719 322.941406 71.199219 322.832031 71.046875 322.675781 C 69.84375 321.929688 69.898438 320.144531 68.210938 319.796875 C 69.871094 325.875 73.167969 330.710938 79.699219 333.371094 C 82.976562 334.707031 86.015625 336.527344 89.242188 337.976562 C 96.671875 341.304688 104.101562 344.660156 112.023438 346.9375 C 114.046875 347.523438 116.121094 348.46875 117.941406 346.507812 C 117.175781 344.511719 115.128906 344.667969 113.515625 344.167969 C 109.621094 342.960938 105.519531 342.238281 102.054688 340.027344 C 102.28125 339.421875 102.507812 338.8125 102.734375 338.203125 C 103.339844 338.027344 103.945312 337.851562 104.546875 337.675781 C 103.789062 337.300781 103.179688 337.558594 102.585938 337.867188 Z M 26.328125 265.878906 C 26.105469 263.953125 26.019531 262 25.34375 260.070312 C 27.660156 259.375 29.65625 258.566406 30.789062 261.265625 C 31.386719 262.699219 32.800781 263.316406 34.300781 262.957031 C 39.386719 261.742188 42.945312 263.972656 46.230469 267.066406 C 46.972656 267.765625 47.890625 268.304688 48.839844 269 C 48.628906 265.308594 48.277344 261.738281 48.257812 258.164062 C 48.246094 256.144531 48.820312 254.75 49.875 253.960938 C 47.921875 250.910156 46.035156 247.804688 44.292969 244.582031 C 30.300781 218.664062 25.355469 190.800781 28.277344 163.988281 C 27.566406 162.191406 26.8125 160.402344 26.054688 158.613281 C 24.085938 153.957031 23.222656 149.054688 23.210938 144.066406 C 23.199219 138.550781 26.308594 134.246094 30.425781 130.671875 C 33.289062 128.1875 36.203125 125.746094 39.140625 123.328125 C 51.25 95.609375 72.449219 71.152344 101.226562 54.089844 C 104.679688 51.839844 108.257812 49.808594 111.964844 48 C 115.847656 46.101562 119.800781 44.445312 123.796875 42.902344 C 124.628906 42.566406 125.460938 42.25 126.296875 41.925781 C 126.597656 41.816406 126.898438 41.695312 127.199219 41.589844 C 194.914062 15.777344 272.308594 35.511719 316.246094 87.503906 C 315.664062 86.695312 315.082031 85.882812 314.429688 85.09375 C 309.132812 78.683594 306.046875 70.863281 299.921875 64.996094 C 294.003906 59.324219 288.148438 53.558594 281.335938 48.742188 C 281.503906 48.238281 281.675781 47.738281 281.84375 47.234375 C 282.332031 47.371094 282.820312 47.507812 283.304688 47.640625 C 284.738281 48.703125 286.054688 49.96875 288.105469 49.921875 C 288.652344 50.898438 289.046875 52.019531 290.539062 52.128906 C 294.855469 57.433594 300.179688 61.859375 305.371094 66.394531 C 307.230469 68.015625 308.84375 69.867188 309.773438 71.980469 C 312.566406 78.34375 317.363281 83.511719 321.351562 89.171875 C 326.554688 96.582031 331.238281 104.308594 335.402344 112.347656 C 340.597656 122.285156 345.191406 132.488281 349.183594 142.96875 C 350.769531 147.160156 351.96875 151.492188 351.601562 156.03125 C 351.355469 159.078125 353.027344 161.746094 353.742188 164.601562 C 354.195312 166.421875 355.316406 164.40625 356.617188 164.570312 C 354.542969 167.863281 354.914062 171.320312 355.195312 174.832031 C 355.78125 182.070312 356.632812 189.304688 356.367188 196.582031 C 356.3125 198.0625 356.398438 199.40625 358.652344 198.304688 C 358.652344 198.304688 358.652344 198.308594 358.652344 198.308594 C 360.90625 193.355469 364.238281 188.78125 364.949219 183.28125 C 365.902344 183.289062 366.410156 183.84375 366.800781 184.546875 C 367.292969 187.929688 365.992188 191.339844 366.742188 195.203125 C 369.203125 193.53125 369.667969 191.578125 369.875 189.414062 C 370.429688 183.628906 370.195312 177.859375 369.691406 172.085938 C 369.535156 170.304688 369.0625 168.523438 369.621094 166.695312 C 372.449219 169.554688 374.191406 173.105469 373.417969 178.191406 C 371.867188 188.347656 372.4375 198.644531 370.539062 208.765625 C 369.125 216.292969 367.214844 223.65625 364.074219 230.734375 L 364.074219 230.730469 C 363.878906 230.285156 363.679688 229.84375 363.496094 229.394531 C 363.28125 228.863281 363.433594 227.972656 362.46875 228.101562 C 361.667969 228.203125 361.53125 228.980469 361.511719 229.613281 C 361.5 230.070312 361.703125 230.53125 361.8125 230.992188 C 359.390625 232.804688 358.246094 235.402344 356.820312 237.824219 L 356.816406 237.824219 C 354.222656 243.75 350.351562 249.148438 347.835938 255.050781 C 344.003906 264.050781 338.546875 272.132812 332.667969 280.011719 C 329.53125 284.207031 325.1875 287.546875 321.316406 291.125 C 311.585938 300.105469 302.539062 309.804688 291.210938 317.257812 C 279.171875 325.175781 266.457031 331.851562 252.226562 335.886719 C 250.523438 336.371094 248.90625 337.136719 247.300781 337.871094 C 243.753906 339.484375 240.230469 341.058594 236.332031 341.941406 C 229.878906 343.402344 224.988281 347.546875 219.582031 350.753906 C 218.234375 351.550781 219.167969 352.734375 220.417969 353.359375 C 220.375 354.300781 219.644531 354.769531 218.898438 355.226562 C 218.902344 355.226562 218.902344 355.226562 218.90625 355.226562 C 218.902344 355.226562 218.902344 355.226562 218.898438 355.226562 C 214.023438 356.382812 209.140625 357.421875 204.054688 356.457031 C 202.074219 356.082031 200.140625 356.503906 198.1875 356.78125 C 181.933594 359.109375 166.003906 358.257812 150.476562 352.871094 C 145.449219 351.125 140.144531 350.074219 134.972656 348.789062 C 127.460938 346.925781 120.363281 344.320312 113.378906 341.292969 C 110.464844 340.03125 107.492188 338.878906 104.546875 337.675781 C 103.714844 336.960938 102.863281 337.195312 102.011719 337.636719 C 99.746094 338.785156 98.175781 337.300781 96.871094 336.148438 C 92.820312 332.574219 87.78125 330.660156 82.8125 328.59375 C 79.449219 325.867188 74.554688 325.21875 71.75 321.726562 C 70.753906 320.796875 69.824219 319.769531 68.210938 319.796875 C 66.890625 319.511719 64.570312 321.578125 64.453125 318.429688 C 64.433594 317.988281 64.203125 317.316406 63.855469 317.160156 C 59.429688 315.183594 57.707031 310.832031 54.222656 307.980469 C 48.148438 303.011719 43.816406 296.65625 39.316406 290.480469 C 36.71875 286.914062 34.140625 283.339844 31.546875 279.769531 C 28.484375 275.558594 26.898438 270.820312 26.328125 265.878906 Z M 359.257812 199.878906 C 360.363281 199.941406 360.730469 198.914062 360.320312 198.199219 C 359.953125 197.554688 359.203125 198.003906 358.660156 198.375 C 358.773438 198.941406 358.464844 199.835938 359.257812 199.878906 Z M 100.132812 307.371094 C 97.664062 305.226562 95.414062 302.828125 91.617188 302.183594 L 99.421875 308.238281 C 99.660156 307.949219 99.894531 307.660156 100.132812 307.371094 Z M 107.316406 314.570312 C 106.9375 314.347656 106.429688 314.320312 105.933594 314.195312 C 105.96875 314.597656 105.882812 315.027344 106.039062 315.125 C 106.425781 315.363281 107.003906 315.65625 107.359375 315.542969 C 107.960938 315.347656 107.71875 314.804688 107.316406 314.570312 Z M 192.101562 349.476562 C 191.019531 348.558594 190.019531 348.753906 189.019531 348.933594 C 187.042969 348.921875 185.070312 348.886719 183.09375 348.90625 C 176.804688 348.960938 170.597656 348.882812 164.414062 347.21875 C 161.570312 346.457031 158.769531 345.035156 155.617188 345.242188 C 151.285156 345.523438 147.011719 344.941406 142.722656 344.503906 C 140.839844 344.308594 138.859375 343.761719 136.84375 345.042969 C 137.90625 346.382812 139.335938 346.589844 140.644531 346.878906 C 145.714844 348.007812 150.535156 349.773438 155.449219 351.335938 C 164.613281 354.253906 174.007812 355.179688 183.34375 351.476562 C 184.625 350.96875 186.132812 350.945312 187.535156 350.699219 C 189.382812 351.28125 190.707031 350.496094 192.101562 349.476562 Z M 209.714844 338.21875 C 209.265625 337.390625 208.667969 337.660156 208.167969 337.671875 C 185.46875 338.152344 162.851562 337.449219 140.472656 333.523438 C 139.765625 333.386719 139.054688 333.320312 138.335938 333.320312 C 131.761719 333.449219 125.441406 332.839844 120.273438 328.484375 C 119.5 327.832031 118.527344 327.289062 116.742188 327.800781 C 119.011719 330.972656 122.082031 332.589844 125.328125 334 C 134.492188 337.984375 144.40625 339.851562 154.039062 342.511719 C 159.066406 343.898438 164.21875 344.292969 169.5 343.996094 C 173.792969 343.753906 178.128906 344.027344 182.4375 344.1875 C 187.832031 344.425781 193.222656 344.328125 198.605469 343.898438 C 199.851562 343.792969 201.847656 343.894531 202.195312 343.28125 C 203.828125 340.390625 207.304688 339.929688 209.714844 338.21875 Z M 136.90625 321.75 C 136.90625 321.75 136.964844 321.558594 136.960938 321.558594 C 135.757812 320.734375 134.484375 320.5625 133.121094 321.191406 C 134.242188 322.148438 135.519531 322.261719 136.90625 321.75 C 138.546875 322.773438 140.289062 323.300781 142.269531 322.691406 C 142.726562 322.890625 143.160156 323.179688 143.640625 323.273438 C 144.253906 323.394531 145.109375 323.65625 145.132812 322.671875 C 145.132812 322.5 144.304688 322.207031 143.839844 322.167969 C 143.355469 322.125 142.847656 322.316406 142.347656 322.40625 C 140.664062 321.523438 138.933594 320.894531 136.964844 321.558594 Z M 124.4375 319.84375 C 126.675781 320.933594 129.003906 321.480469 131.503906 320.722656 C 128.160156 318.859375 124.308594 318.078125 120.824219 316.449219 C 117.230469 314.769531 114.269531 311.992188 110.175781 311.027344 C 109.957031 312.652344 110.972656 313.265625 112.128906 313.824219 C 116.238281 315.820312 120.332031 317.847656 124.4375 319.84375 Z M 118.296875 320.691406 C 118.109375 320.769531 118.066406 321.140625 117.957031 321.378906 C 118.203125 321.527344 118.46875 321.8125 118.679688 321.785156 C 118.914062 321.75 119.273438 321.410156 119.261719 321.222656 C 119.230469 320.71875 118.8125 320.472656 118.296875 320.691406 Z M 111.84375 317.539062 C 111.621094 317.488281 111.402344 317.4375 111.175781 317.382812 C 111.390625 317.464844 111.601562 317.546875 111.8125 317.628906 C 112.742188 319.160156 114.03125 319.886719 116.148438 319.308594 C 114.957031 317.855469 113.5 317.492188 111.84375 317.539062 Z M 133.019531 321.171875 C 132.855469 320.992188 132.660156 320.863281 132.425781 320.792969 C 132.195312 320.722656 131.960938 320.714844 131.726562 320.769531 C 131.886719 320.953125 132.082031 321.082031 132.316406 321.15625 C 132.546875 321.226562 132.78125 321.234375 133.019531 321.171875 Z M 297.390625 289.488281 C 298.542969 288.5 299.5 287.351562 300.261719 286.039062 C 288.800781 296.070312 275.535156 304.714844 260.613281 311.523438 C 255.714844 313.757812 250.757812 315.742188 245.746094 317.472656 C 250.875 316.285156 255.867188 314.660156 260.71875 312.605469 C 274.371094 306.855469 286.328125 298.746094 297.390625 289.488281 Z M 29.316406 156.445312 C 30.558594 148.96875 32.398438 141.644531 34.839844 134.46875 C 34.164062 134.976562 33.488281 135.488281 32.84375 136.03125 C 26.789062 141.128906 25.671875 147.710938 28.628906 154.765625 C 28.863281 155.324219 29.085938 155.886719 29.316406 156.445312 Z M 53.75 264.917969 C 53.84375 265.421875 54.289062 265.671875 54.933594 265.539062 C 55.789062 265.097656 56.035156 264.367188 55.71875 263.539062 C 55.527344 263.027344 55 262.84375 54.472656 263.21875 C 54.191406 263.402344 53.984375 263.648438 53.851562 263.957031 C 53.71875 264.265625 53.6875 264.585938 53.75 264.917969 Z M 74.800781 294.292969 C 71.070312 291.917969 69.390625 288.535156 64.945312 286.242188 C 67.378906 291.890625 68.921875 293.125 74.800781 294.292969 Z M 33.582031 250.265625 C 33.699219 249.847656 33.429688 249.613281 32.964844 249.664062 C 32.527344 249.714844 32.269531 250.003906 32.417969 250.375 C 32.527344 250.648438 32.851562 250.84375 33.082031 251.074219 C 33.257812 250.808594 33.503906 250.554688 33.582031 250.265625 Z M 316.199219 303.574219 C 314.117188 305.824219 311.976562 307.125 311.425781 309.628906 C 314.183594 308.8125 315.808594 307.121094 316.199219 303.574219 Z M 311.359375 309.652344 C 311.351562 309.671875 311.339844 309.6875 311.332031 309.703125 C 311.355469 309.695312 311.378906 309.679688 311.40625 309.671875 Z M 311.359375 309.652344 L 311.40625 309.671875 C 311.410156 309.65625 311.417969 309.644531 311.421875 309.628906 C 311.402344 309.632812 311.382812 309.648438 311.359375 309.652344 Z M 311.359375 309.652344 " clip-rule="nonzero"/></clipPath><linearGradient x1="960.682795" gradientTransform="matrix(0.207423, 0, 0, 0.207366, -19.902436, -20.09241)" y1="131.077369" x2="1044.980845" gradientUnits="userSpaceOnUse" y2="1870.280064" id="0536f5669b"><stop stop-opacity="1" stop-color="rgb(49.026489%, 81.027222%, 18.57605%)" offset="0"/><stop stop-opacity="1" stop-color="rgb(48.63739%, 80.819702%, 18.701172%)" offset="0.00390625"/><stop stop-opacity="1" stop-color="rgb(48.248291%, 80.612183%, 18.82782%)" offset="0.0078125"/><stop stop-opacity="1" stop-color="rgb(47.859192%, 80.404663%, 18.952942%)" offset="0.0117187"/><stop stop-opacity="1" stop-color="rgb(47.470093%, 80.197144%, 19.07959%)" offset="0.015625"/><stop stop-opacity="1" stop-color="rgb(47.12677%, 80.012512%, 19.189453%)" offset="0.0195312"/><stop stop-opacity="1" stop-color="rgb(46.783447%, 79.829407%, 19.299316%)" offset="0.0234375"/><stop stop-opacity="1" stop-color="rgb(46.481323%, 79.667664%, 19.395447%)" offset="0.0273437"/><stop stop-opacity="1" stop-color="rgb(46.180725%, 79.507446%, 19.491577%)" offset="0.03125"/><stop stop-opacity="1" stop-color="rgb(45.878601%, 79.345703%, 19.587708%)" offset="0.0351562"/><stop stop-opacity="1" stop-color="rgb(45.578003%, 79.18396%, 19.683838%)" offset="0.0390625"/><stop stop-opacity="1" stop-color="rgb(45.275879%, 79.022217%, 19.778442%)" offset="0.0429687"/><stop stop-opacity="1" stop-color="rgb(44.975281%, 78.860474%, 19.874573%)" offset="0.046875"/><stop stop-opacity="1" stop-color="rgb(44.673157%, 78.69873%, 19.970703%)" offset="0.0507812"/><stop stop-opacity="1" stop-color="rgb(44.372559%, 78.536987%, 20.066833%)" offset="0.0546875"/><stop stop-opacity="1" stop-color="rgb(44.07196%, 78.375244%, 20.162964%)" offset="0.0585937"/><stop stop-opacity="1" stop-color="rgb(43.771362%, 78.213501%, 20.259094%)" offset="0.0625"/><stop stop-opacity="1" stop-color="rgb(43.469238%, 78.051758%, 20.353699%)" offset="0.0664062"/><stop stop-opacity="1" stop-color="rgb(43.16864%, 77.890015%, 20.449829%)" offset="0.0703125"/><stop stop-opacity="1" stop-color="rgb(42.866516%, 77.728271%, 20.545959%)" offset="0.0742188"/><stop stop-opacity="1" stop-color="rgb(42.565918%, 77.568054%, 20.64209%)" offset="0.078125"/><stop stop-opacity="1" stop-color="rgb(42.263794%, 77.406311%, 20.736694%)" offset="0.0820312"/><stop stop-opacity="1" stop-color="rgb(41.963196%, 77.244568%, 20.832825%)" offset="0.0859375"/><stop stop-opacity="1" stop-color="rgb(41.661072%, 77.082825%, 20.928955%)" offset="0.0898438"/><stop stop-opacity="1" stop-color="rgb(41.360474%, 76.921082%, 21.025085%)" offset="0.09375"/><stop stop-opacity="1" stop-color="rgb(41.05835%, 76.759338%, 21.121216%)" offset="0.0976562"/><stop stop-opacity="1" stop-color="rgb(40.757751%, 76.597595%, 21.217346%)" offset="0.101562"/><stop stop-opacity="1" stop-color="rgb(40.455627%, 76.435852%, 21.311951%)" offset="0.105469"/><stop stop-opacity="1" stop-color="rgb(40.155029%, 76.274109%, 21.408081%)" offset="0.109375"/><stop stop-opacity="1" stop-color="rgb(39.852905%, 76.112366%, 21.504211%)" offset="0.113281"/><stop stop-opacity="1" stop-color="rgb(39.552307%, 75.950623%, 21.600342%)" offset="0.117188"/><stop stop-opacity="1" stop-color="rgb(39.250183%, 75.788879%, 21.696472%)" offset="0.121094"/><stop stop-opacity="1" stop-color="rgb(38.949585%, 75.628662%, 21.792603%)" offset="0.125"/><stop stop-opacity="1" stop-color="rgb(38.647461%, 75.466919%, 21.887207%)" offset="0.128906"/><stop stop-opacity="1" stop-color="rgb(38.346863%, 75.305176%, 21.983337%)" offset="0.132812"/><stop stop-opacity="1" stop-color="rgb(38.044739%, 75.143433%, 22.079468%)" offset="0.136719"/><stop stop-opacity="1" stop-color="rgb(37.744141%, 74.981689%, 22.175598%)" offset="0.140625"/><stop stop-opacity="1" stop-color="rgb(37.442017%, 74.819946%, 22.271729%)" offset="0.144531"/><stop stop-opacity="1" stop-color="rgb(37.141418%, 74.658203%, 22.367859%)" offset="0.148438"/><stop stop-opacity="1" stop-color="rgb(36.839294%, 74.49646%, 22.462463%)" offset="0.152344"/><stop stop-opacity="1" stop-color="rgb(36.538696%, 74.334717%, 22.558594%)" offset="0.15625"/><stop stop-opacity="1" stop-color="rgb(36.25946%, 74.183655%, 22.648621%)" offset="0.160156"/><stop stop-opacity="1" stop-color="rgb(35.980225%, 74.034119%, 22.738647%)" offset="0.164062"/><stop stop-opacity="1" stop-color="rgb(35.760498%, 73.913574%, 22.808838%)" offset="0.167969"/><stop stop-opacity="1" stop-color="rgb(35.540771%, 73.794556%, 22.880554%)" offset="0.171875"/><stop stop-opacity="1" stop-color="rgb(35.321045%, 73.674011%, 22.952271%)" offset="0.175781"/><stop stop-opacity="1" stop-color="rgb(35.101318%, 73.553467%, 23.023987%)" offset="0.179688"/><stop stop-opacity="1" stop-color="rgb(34.881592%, 73.432922%, 23.095703%)" offset="0.183594"/><stop stop-opacity="1" stop-color="rgb(34.661865%, 73.313904%, 23.167419%)" offset="0.1875"/><stop stop-opacity="1" stop-color="rgb(34.440613%, 73.193359%, 23.239136%)" offset="0.191406"/><stop stop-opacity="1" stop-color="rgb(34.220886%, 73.072815%, 23.310852%)" offset="0.195312"/><stop stop-opacity="1" stop-color="rgb(34.00116%, 72.952271%, 23.382568%)" offset="0.199219"/><stop stop-opacity="1" stop-color="rgb(33.781433%, 72.833252%, 23.454285%)" offset="0.203125"/><stop stop-opacity="1" stop-color="rgb(33.561707%, 72.712708%, 23.524475%)" offset="0.207031"/><stop stop-opacity="1" stop-color="rgb(33.34198%, 72.592163%, 23.596191%)" offset="0.210938"/><stop stop-opacity="1" stop-color="rgb(33.122253%, 72.471619%, 23.667908%)" offset="0.214844"/><stop stop-opacity="1" stop-color="rgb(32.902527%, 72.3526%, 23.739624%)" offset="0.21875"/><stop stop-opacity="1" stop-color="rgb(32.6828%, 72.232056%, 23.81134%)" offset="0.222656"/><stop stop-opacity="1" stop-color="rgb(32.463074%, 72.111511%, 23.883057%)" offset="0.226562"/><stop stop-opacity="1" stop-color="rgb(32.241821%, 71.990967%, 23.954773%)" offset="0.230469"/><stop stop-opacity="1" stop-color="rgb(32.022095%, 71.871948%, 24.026489%)" offset="0.234375"/><stop stop-opacity="1" stop-color="rgb(31.802368%, 71.751404%, 24.098206%)" offset="0.238281"/><stop stop-opacity="1" stop-color="rgb(31.582642%, 71.630859%, 24.169922%)" offset="0.242188"/><stop stop-opacity="1" stop-color="rgb(31.362915%, 71.510315%, 24.241638%)" offset="0.246094"/><stop stop-opacity="1" stop-color="rgb(31.143188%, 71.391296%, 24.313354%)" offset="0.25"/><stop stop-opacity="1" stop-color="rgb(30.923462%, 71.270752%, 24.383545%)" offset="0.253906"/><stop stop-opacity="1" stop-color="rgb(30.703735%, 71.150208%, 24.455261%)" offset="0.257812"/><stop stop-opacity="1" stop-color="rgb(30.484009%, 71.029663%, 24.526978%)" offset="0.261719"/><stop stop-opacity="1" stop-color="rgb(30.264282%, 70.910645%, 24.598694%)" offset="0.265625"/><stop stop-opacity="1" stop-color="rgb(30.044556%, 70.7901%, 24.67041%)" offset="0.269531"/><stop stop-opacity="1" stop-color="rgb(29.824829%, 70.669556%, 24.742126%)" offset="0.273438"/><stop stop-opacity="1" stop-color="rgb(29.603577%, 70.549011%, 24.813843%)" offset="0.277344"/><stop stop-opacity="1" stop-color="rgb(29.38385%, 70.429993%, 24.885559%)" offset="0.28125"/><stop stop-opacity="1" stop-color="rgb(29.164124%, 70.309448%, 24.957275%)" offset="0.285156"/><stop stop-opacity="1" stop-color="rgb(28.944397%, 70.188904%, 25.028992%)" offset="0.289062"/><stop stop-opacity="1" stop-color="rgb(28.72467%, 70.068359%, 25.100708%)" offset="0.292969"/><stop stop-opacity="1" stop-color="rgb(28.504944%, 69.949341%, 25.172424%)" offset="0.296875"/><stop stop-opacity="1" stop-color="rgb(28.285217%, 69.828796%, 25.242615%)" offset="0.300781"/><stop stop-opacity="1" stop-color="rgb(28.065491%, 69.708252%, 25.314331%)" offset="0.304688"/><stop stop-opacity="1" stop-color="rgb(27.845764%, 69.587708%, 25.386047%)" offset="0.308594"/><stop stop-opacity="1" stop-color="rgb(27.626038%, 69.468689%, 25.457764%)" offset="0.3125"/><stop stop-opacity="1" stop-color="rgb(27.464294%, 69.381714%, 25.505066%)" offset="0.320312"/><stop stop-opacity="1" stop-color="rgb(27.165222%, 69.223022%, 25.588989%)" offset="0.328125"/><stop stop-opacity="1" stop-color="rgb(26.890564%, 69.078064%, 25.663757%)" offset="0.335938"/><stop stop-opacity="1" stop-color="rgb(26.61438%, 68.934631%, 25.738525%)" offset="0.34375"/><stop stop-opacity="1" stop-color="rgb(26.339722%, 68.789673%, 25.813293%)" offset="0.351562"/><stop stop-opacity="1" stop-color="rgb(26.065063%, 68.644714%, 25.888062%)" offset="0.359375"/><stop stop-opacity="1" stop-color="rgb(25.788879%, 68.499756%, 25.96283%)" offset="0.367188"/><stop stop-opacity="1" stop-color="rgb(25.514221%, 68.356323%, 26.036072%)" offset="0.375"/><stop stop-opacity="1" stop-color="rgb(25.239563%, 68.211365%, 26.11084%)" offset="0.382812"/><stop stop-opacity="1" stop-color="rgb(24.963379%, 68.066406%, 26.185608%)" offset="0.390625"/><stop stop-opacity="1" stop-color="rgb(24.688721%, 67.921448%, 26.260376%)" offset="0.398438"/><stop stop-opacity="1" stop-color="rgb(24.414062%, 67.778015%, 26.335144%)" offset="0.40625"/><stop stop-opacity="1" stop-color="rgb(24.137878%, 67.633057%, 26.409912%)" offset="0.414062"/><stop stop-opacity="1" stop-color="rgb(23.86322%, 67.488098%, 26.48468%)" offset="0.421875"/><stop stop-opacity="1" stop-color="rgb(23.588562%, 67.34314%, 26.559448%)" offset="0.429688"/><stop stop-opacity="1" stop-color="rgb(23.312378%, 67.199707%, 26.634216%)" offset="0.4375"/><stop stop-opacity="1" stop-color="rgb(23.03772%, 67.054749%, 26.708984%)" offset="0.445312"/><stop stop-opacity="1" stop-color="rgb(22.763062%, 66.90979%, 26.783752%)" offset="0.453125"/><stop stop-opacity="1" stop-color="rgb(22.486877%, 66.764832%, 26.856995%)" offset="0.460938"/><stop stop-opacity="1" stop-color="rgb(22.212219%, 66.621399%, 26.931763%)" offset="0.46875"/><stop stop-opacity="1" stop-color="rgb(21.936035%, 66.47644%, 27.006531%)" offset="0.476563"/><stop stop-opacity="1" stop-color="rgb(21.678162%, 66.340637%, 27.078247%)" offset="0.484375"/><stop stop-opacity="1" stop-color="rgb(21.414185%, 66.197205%, 27.154541%)" offset="0.5"/><stop stop-opacity="1" stop-color="rgb(21.125793%, 66.035461%, 27.243042%)" offset="0.515625"/><stop stop-opacity="1" stop-color="rgb(20.837402%, 65.875244%, 27.331543%)" offset="0.53125"/><stop stop-opacity="1" stop-color="rgb(20.547485%, 65.715027%, 27.420044%)" offset="0.546875"/><stop stop-opacity="1" stop-color="rgb(20.259094%, 65.55481%, 27.508545%)" offset="0.5625"/><stop stop-opacity="1" stop-color="rgb(19.970703%, 65.394592%, 27.597046%)" offset="0.578125"/><stop stop-opacity="1" stop-color="rgb(19.680786%, 65.232849%, 27.685547%)" offset="0.59375"/><stop stop-opacity="1" stop-color="rgb(19.392395%, 65.072632%, 27.774048%)" offset="0.609375"/><stop stop-opacity="1" stop-color="rgb(19.104004%, 64.912415%, 27.861023%)" offset="0.625"/><stop stop-opacity="1" stop-color="rgb(18.814087%, 64.752197%, 27.949524%)" offset="0.640625"/><stop stop-opacity="1" stop-color="rgb(18.525696%, 64.590454%, 28.038025%)" offset="0.65625"/><stop stop-opacity="1" stop-color="rgb(18.235779%, 64.430237%, 28.126526%)" offset="0.671875"/><stop stop-opacity="1" stop-color="rgb(18.025208%, 64.317322%, 28.192139%)" offset="0.6875"/><stop stop-opacity="1" stop-color="rgb(17.835999%, 64.239502%, 28.257751%)" offset="0.75"/><stop stop-opacity="1" stop-color="rgb(17.593384%, 64.151001%, 28.346252%)" offset="0.8125"/><stop stop-opacity="1" stop-color="rgb(17.350769%, 64.064026%, 28.434753%)" offset="0.875"/><stop stop-opacity="1" stop-color="rgb(17.063904%, 63.95874%, 28.538513%)" offset="0.94974"/><stop stop-opacity="1" stop-color="rgb(16.899109%, 63.899231%, 28.599548%)" offset="1"/></linearGradient></defs><g clip-path="url(#f68376fa2a)"><g clip-path="url(#03b660ea90)"><path fill="url(#0536f5669b)" d="M 0.0429688 15.777344 L 0.0429688 359.109375 L 375 359.109375 L 375 15.777344 Z M 0.0429688 15.777344 " fill-rule="nonzero"/></g></g><path fill="#ffffff" d="M 93.824219 184.675781 C 81.023438 184.675781 78.605469 178.484375 79.710938 169.074219 L 79.710938 168.996094 C 79.703125 168.824219 79.71875 168.65625 79.75 168.484375 C 79.835938 167.9375 79.921875 167.339844 80.003906 166.789062 C 80.054688 166.378906 80.128906 165.96875 80.21875 165.5625 C 80.640625 163.144531 81.359375 160.011719 82.167969 156.617188 C 82.507812 155.140625 82.890625 153.609375 83.226562 152.085938 C 84.921875 146.734375 85.910156 141.253906 86.191406 135.644531 C 86.046875 135.382812 85.835938 135.191406 85.5625 135.074219 C 85.285156 134.957031 85.003906 134.933594 84.710938 135.007812 C 82.378906 135.730469 80.203125 136.773438 78.183594 138.144531 C 76.148438 139.164062 73.898438 137.347656 72.96875 136.320312 C 72.488281 135.914062 72.074219 135.453125 71.71875 134.933594 C 71.367188 134.410156 71.089844 133.851562 70.890625 133.257812 C 70.6875 132.660156 70.574219 132.050781 70.539062 131.421875 C 70.507812 130.792969 70.558594 130.171875 70.699219 129.558594 C 70.835938 128.945312 71.054688 128.363281 71.351562 127.808594 C 71.648438 127.253906 72.015625 126.75 72.449219 126.296875 C 72.886719 125.84375 73.375 125.457031 73.917969 125.136719 C 74.457031 124.816406 75.035156 124.578125 75.640625 124.414062 C 77.929688 123.707031 79.949219 122.535156 81.703125 120.902344 C 84.371094 118.609375 84.253906 117.59375 87.675781 114.886719 C 88.796875 114.09375 90.042969 113.65625 91.410156 113.566406 C 92.722656 113.441406 106.03125 112.804688 106.03125 119.929688 C 106.03125 124.925781 99.460938 132.085938 105.101562 155.140625 C 109.210938 171.886719 112.261719 184.675781 93.824219 184.675781 Z M 93.824219 184.675781 " fill-opacity="1" fill-rule="nonzero"/><path fill="#ffffff" d="M 169.421875 166.796875 C 163.949219 178.425781 153.871094 184.886719 138.210938 184.886719 C 110.496094 184.886719 104.125 143.578125 117.472656 125.910156 C 118.085938 125.101562 118.734375 124.324219 119.421875 123.574219 C 120.113281 122.828125 120.835938 122.117188 121.589844 121.4375 C 122.347656 120.761719 123.132812 120.121094 123.953125 119.515625 C 124.769531 118.914062 125.613281 118.351562 126.488281 117.832031 C 127.359375 117.308594 128.253906 116.832031 129.171875 116.394531 C 130.089844 115.957031 131.023438 115.566406 131.980469 115.222656 C 132.933594 114.875 133.90625 114.574219 134.886719 114.324219 C 135.871094 114.070312 136.867188 113.863281 137.871094 113.707031 C 138.875 113.546875 139.882812 113.4375 140.894531 113.375 C 141.910156 113.316406 142.925781 113.300781 143.941406 113.339844 C 144.957031 113.375 145.96875 113.457031 146.972656 113.589844 C 147.980469 113.722656 148.980469 113.90625 149.96875 114.132812 C 150.960938 114.363281 151.9375 114.636719 152.898438 114.960938 C 153.863281 115.28125 154.808594 115.648438 155.738281 116.0625 C 156.664062 116.476562 157.574219 116.929688 158.457031 117.429688 C 159.339844 117.929688 160.199219 118.472656 161.03125 119.054688 C 176.4375 132.304688 175.910156 153 169.421875 166.796875 Z M 154.769531 138.085938 C 154.554688 127.285156 149.496094 124.660156 144.082031 124.15625 C 143.109375 124.167969 142.152344 124.296875 141.210938 124.546875 C 140.269531 124.796875 139.375 125.160156 138.523438 125.628906 C 137.671875 126.101562 136.894531 126.671875 136.183594 127.335938 C 135.476562 128.003906 134.859375 128.746094 134.332031 129.5625 C 131.339844 134.839844 130.632812 149.941406 140.804688 156.292969 C 146.867188 160.078125 154.96875 148.953125 154.769531 138.085938 Z M 154.769531 138.085938 " fill-opacity="1" fill-rule="nonzero"/><path fill="#ffffff" d="M 237.628906 166.796875 C 232.15625 178.425781 222.078125 184.886719 206.417969 184.886719 C 178.703125 184.886719 172.332031 143.578125 185.679688 125.910156 C 186.292969 125.101562 186.941406 124.324219 187.628906 123.574219 C 188.320312 122.828125 189.042969 122.117188 189.796875 121.4375 C 190.554688 120.761719 191.339844 120.121094 192.160156 119.515625 C 192.976562 118.914062 193.820312 118.351562 194.691406 117.832031 C 195.566406 117.308594 196.460938 116.832031 197.378906 116.394531 C 198.292969 115.957031 199.230469 115.566406 200.1875 115.222656 C 201.140625 114.875 202.109375 114.574219 203.09375 114.324219 C 204.078125 114.070312 205.074219 113.863281 206.074219 113.707031 C 207.078125 113.546875 208.089844 113.4375 209.101562 113.375 C 210.117188 113.316406 211.132812 113.304688 212.144531 113.339844 C 213.160156 113.375 214.171875 113.457031 215.179688 113.589844 C 216.1875 113.722656 217.1875 113.90625 218.175781 114.132812 C 219.164062 114.363281 220.140625 114.636719 221.105469 114.960938 C 222.070312 115.28125 223.015625 115.648438 223.945312 116.0625 C 224.871094 116.476562 225.777344 116.929688 226.664062 117.429688 C 227.546875 117.929688 228.40625 118.472656 229.238281 119.054688 C 244.644531 132.304688 244.117188 153 237.628906 166.796875 Z M 222.976562 138.085938 C 222.761719 127.285156 217.703125 124.660156 212.285156 124.15625 C 211.3125 124.167969 210.359375 124.296875 209.417969 124.546875 C 208.476562 124.796875 207.582031 125.15625 206.730469 125.628906 C 205.878906 126.101562 205.101562 126.671875 204.390625 127.335938 C 203.683594 128 203.066406 128.742188 202.539062 129.5625 C 199.546875 134.835938 198.839844 149.9375 209.011719 156.292969 C 215.074219 160.078125 223.175781 148.953125 222.976562 138.085938 Z M 222.976562 138.085938 " fill-opacity="1" fill-rule="nonzero"/><path fill="#ffffff" d="M 278.519531 128.515625 C 278.703125 144.921875 263.003906 153.398438 253.628906 150.507812 C 244.253906 147.625 245.957031 137.324219 246.953125 132.664062 C 247.523438 129.777344 248.464844 127.015625 249.785156 124.382812 C 251.101562 121.75 252.742188 119.339844 254.710938 117.152344 C 260.300781 110.265625 278.335938 112.070312 278.519531 128.476562 Z M 271.167969 124.699219 C 271.207031 124.085938 271.152344 123.480469 271.007812 122.878906 C 270.863281 122.28125 270.636719 121.71875 270.324219 121.1875 C 270.011719 120.660156 269.625 120.1875 269.171875 119.769531 C 268.71875 119.355469 268.214844 119.015625 267.660156 118.75 C 267.105469 118.484375 266.523438 118.304688 265.914062 118.214844 C 265.304688 118.121094 264.695312 118.121094 264.085938 118.210938 C 263.480469 118.304688 262.894531 118.480469 262.339844 118.742188 C 261.785156 119.007812 261.28125 119.347656 260.824219 119.761719 C 259.078125 121.699219 257.945312 123.945312 257.433594 126.5 C 257.011719 128.523438 256.261719 133.003906 260.335938 134.253906 C 260.675781 134.3125 261.019531 134.351562 261.363281 134.371094 C 261.710938 134.386719 262.054688 134.386719 262.398438 134.367188 C 262.746094 134.351562 263.089844 134.3125 263.429688 134.253906 C 263.769531 134.195312 264.105469 134.121094 264.4375 134.023438 C 264.769531 133.929688 265.097656 133.816406 265.417969 133.683594 C 265.738281 133.554688 266.046875 133.402344 266.351562 133.238281 C 266.65625 133.070312 266.949219 132.890625 267.230469 132.691406 C 267.511719 132.492188 267.785156 132.277344 268.042969 132.046875 C 268.300781 131.820312 268.546875 131.574219 268.777344 131.320312 C 269.011719 131.0625 269.226562 130.792969 269.429688 130.515625 C 269.632812 130.234375 269.816406 129.941406 269.984375 129.640625 C 270.15625 129.339844 270.308594 129.03125 270.441406 128.710938 C 270.578125 128.394531 270.695312 128.066406 270.792969 127.738281 C 270.890625 127.40625 270.972656 127.070312 271.03125 126.730469 C 271.09375 126.390625 271.136719 126.046875 271.15625 125.703125 C 271.179688 125.355469 271.183594 125.011719 271.167969 124.667969 Z M 294.441406 138.449219 C 286.957031 151.671875 280.246094 165.273438 274.3125 179.261719 C 270.625 188.949219 260.78125 181.335938 265.300781 172.480469 C 269.820312 163.628906 287.667969 129.316406 295.492188 115.980469 C 301.175781 106.289062 304.910156 111.539062 305.882812 116.34375 C 306.308594 118.382812 304.675781 122.96875 294.441406 138.449219 Z M 320.558594 158.597656 C 320.738281 175.007812 305.046875 183.480469 295.664062 180.597656 C 286.285156 177.710938 287.992188 167.40625 288.996094 162.746094 C 289.5625 159.859375 290.503906 157.101562 291.820312 154.46875 C 293.136719 151.839844 294.78125 149.429688 296.75 147.242188 C 302.34375 140.363281 320.378906 142.167969 320.558594 158.578125 Z M 313.207031 154.789062 C 313.242188 154.175781 313.191406 153.570312 313.046875 152.972656 C 312.902344 152.375 312.671875 151.808594 312.359375 151.277344 C 312.046875 150.75 311.664062 150.277344 311.210938 149.859375 C 310.757812 149.445312 310.253906 149.105469 309.699219 148.839844 C 309.140625 148.574219 308.558594 148.398438 307.953125 148.304688 C 307.34375 148.214844 306.734375 148.214844 306.125 148.304688 C 305.515625 148.394531 304.933594 148.570312 304.378906 148.835938 C 303.824219 149.097656 303.316406 149.4375 302.863281 149.851562 C 301.121094 151.789062 300 154.035156 299.5 156.59375 C 299.074219 158.613281 298.320312 163.09375 302.394531 164.34375 C 302.734375 164.402344 303.078125 164.4375 303.421875 164.457031 C 303.765625 164.476562 304.109375 164.476562 304.453125 164.457031 C 304.800781 164.433594 305.140625 164.394531 305.480469 164.339844 C 305.820312 164.28125 306.15625 164.203125 306.488281 164.109375 C 306.820312 164.011719 307.148438 163.898438 307.464844 163.765625 C 307.785156 163.636719 308.09375 163.488281 308.398438 163.320312 C 308.699219 163.15625 308.992188 162.972656 309.273438 162.773438 C 309.558594 162.574219 309.828125 162.359375 310.085938 162.132812 C 310.34375 161.902344 310.589844 161.660156 310.820312 161.402344 C 311.050781 161.148438 311.265625 160.878906 311.46875 160.601562 C 311.671875 160.320312 311.855469 160.027344 312.023438 159.726562 C 312.195312 159.425781 312.34375 159.117188 312.480469 158.800781 C 312.613281 158.484375 312.730469 158.160156 312.828125 157.828125 C 312.929688 157.496094 313.007812 157.160156 313.070312 156.824219 C 313.128906 156.484375 313.171875 156.140625 313.195312 155.796875 C 313.21875 155.453125 313.222656 155.109375 313.207031 154.761719 Z M 313.207031 154.789062 " fill-opacity="1" fill-rule="nonzero"/><path fill="#ffffff" d="M 89.445312 208.09375 C 81.410156 206.78125 85.945312 223.800781 98.386719 220.484375 C 109.558594 217.515625 110.136719 234.699219 102.496094 233.417969 C 91.601562 231.597656 89.953125 236.316406 89.609375 241.011719 C 89.164062 243.320312 89.167969 245.625 89.617188 247.929688 C 90.066406 250.234375 90.929688 252.371094 92.207031 254.339844 C 96.921875 266.695312 61.152344 269.144531 67.613281 250.007812 C 73.890625 231.464844 66.320312 216.722656 67.773438 206.722656 C 69.226562 196.726562 82.839844 198.96875 99.109375 201.183594 C 109.839844 202.648438 107 211.421875 101.304688 213.214844 C 95.535156 215.023438 96.910156 209.3125 89.445312 208.09375 Z M 89.445312 208.09375 " fill-opacity="1" fill-rule="nonzero"/><path fill="#ffffff" d="M 154.503906 263.941406 C 144.832031 263.941406 146.132812 255.648438 141.472656 245.90625 C 141.132812 245.023438 140.679688 244.210938 140.113281 243.457031 C 139.546875 242.703125 138.882812 242.042969 138.132812 241.476562 C 137.378906 240.910156 136.5625 240.457031 135.679688 240.117188 C 134.800781 239.78125 133.890625 239.570312 132.949219 239.488281 C 136.3125 253.476562 138.03125 263.941406 122.25 263.941406 C 105.625 263.941406 108.378906 252.398438 112.046875 237.316406 C 117.167969 216.488281 111.242188 210.074219 111.242188 205.5625 C 111.242188 199.148438 122.25 199.796875 122.25 199.796875 C 130.917969 198.542969 139.488281 199.011719 147.96875 201.207031 C 151.984375 202.34375 155.449219 204.40625 158.363281 207.398438 L 158.363281 207.4375 C 159.222656 208.414062 159.976562 209.46875 160.621094 210.601562 C 161.265625 211.730469 161.785156 212.917969 162.183594 214.15625 C 162.582031 215.394531 162.847656 216.664062 162.980469 217.957031 C 163.117188 219.253906 163.117188 220.546875 162.984375 221.84375 C 162.375 234.101562 156.144531 239.414062 148.808594 240.367188 C 151.714844 242.777344 154.730469 245.027344 157.214844 246.863281 C 164.59375 252.214844 170.78125 263.941406 154.503906 263.941406 Z M 149.242188 212.777344 C 147.019531 206.039062 129.386719 205.96875 130.382812 210.550781 C 132.007812 218.03125 129.75 218.730469 132.496094 220.257812 C 136.5 222.5 151.46875 219.523438 149.242188 212.777344 Z M 149.242188 212.777344 " fill-opacity="1" fill-rule="nonzero"/><path fill="#ffffff" d="M 188.167969 208.09375 C 180.054688 208.574219 185.617188 229.242188 196.960938 223.132812 C 204.464844 219.097656 208.851562 232.894531 201.839844 236.179688 C 194.828125 239.464844 190.476562 231.90625 188.523438 241.175781 C 186.570312 250.441406 195.984375 246.054688 200.011719 243.492188 C 206.824219 239.167969 218.609375 236.496094 218.671875 250.808594 C 218.738281 266.941406 161.496094 269.144531 167.957031 250.011719 C 174.230469 231.464844 166.652344 216.722656 168.117188 206.722656 C 169.578125 196.726562 185.164062 199.210938 201.429688 201.429688 C 212.164062 202.890625 209.320312 211.667969 203.628906 213.460938 C 197.863281 215.269531 197.777344 207.523438 188.167969 208.09375 Z M 188.167969 208.09375 " fill-opacity="1" fill-rule="nonzero"/><path fill="#ffffff" d="M 269.546875 243.191406 L 269.511719 243.191406 C 269.164062 251.785156 262.058594 264.011719 242.644531 264.011719 C 230.457031 264.011719 219.640625 257.589844 219.640625 244.21875 C 219.632812 243.652344 219.6875 243.089844 219.796875 242.53125 C 219.910156 241.972656 220.082031 241.433594 220.308594 240.914062 C 220.539062 240.390625 220.820312 239.902344 221.152344 239.441406 C 221.484375 238.980469 221.863281 238.558594 222.289062 238.179688 C 222.710938 237.796875 223.171875 237.46875 223.664062 237.1875 C 224.160156 236.902344 224.675781 236.675781 225.21875 236.507812 C 225.761719 236.335938 226.316406 236.222656 226.882812 236.171875 C 227.449219 236.121094 228.015625 236.128906 228.582031 236.195312 C 234.1875 237.171875 233.582031 239.625 238.929688 241.78125 C 254.601562 248.074219 249.300781 237.746094 230.144531 230.910156 C 216.535156 226.058594 220.765625 214.941406 223.953125 210.855469 C 236.21875 195.101562 250.875 199.703125 259.566406 202.875 C 268.261719 206.039062 268.738281 218.394531 263.390625 221.488281 C 262.925781 221.777344 262.441406 222.019531 261.929688 222.21875 C 261.421875 222.417969 260.898438 222.570312 260.363281 222.671875 C 259.824219 222.773438 259.28125 222.828125 258.738281 222.828125 C 258.191406 222.832031 257.648438 222.78125 257.109375 222.683594 C 256.574219 222.585938 256.046875 222.441406 255.539062 222.246094 C 255.027344 222.050781 254.539062 221.8125 254.074219 221.527344 C 253.605469 221.242188 253.171875 220.914062 252.765625 220.550781 C 252.359375 220.183594 251.988281 219.785156 251.65625 219.351562 C 249.515625 216.320312 240.695312 209.761719 238.023438 211.734375 C 234.832031 214.074219 233.945312 224.300781 252.859375 226.484375 C 271.777344 228.699219 269.546875 243.191406 269.546875 243.191406 Z M 269.546875 243.191406 " fill-opacity="1" fill-rule="nonzero"/><path fill="#ffffff" d="M 323.921875 263.363281 C 304.914062 267.273438 305.0625 250.480469 310.617188 239.507812 C 316.175781 228.539062 303.132812 229.386719 303.132812 229.386719 C 303.132812 229.386719 290.089844 228.539062 295.644531 239.507812 C 301.203125 250.480469 301.351562 267.273438 282.34375 263.363281 C 272.082031 261.246094 268.292969 251.722656 274.40625 237.316406 C 283.527344 215.855469 275.441406 212.074219 275.410156 207.5625 C 275.34375 200.238281 283.628906 199.808594 283.628906 199.808594 C 297.617188 199.808594 297.441406 208.144531 293.945312 215.367188 C 290.152344 223.175781 303.140625 224.023438 303.140625 224.023438 C 303.140625 224.023438 316.117188 223.175781 312.339844 215.367188 C 308.851562 208.144531 308.675781 199.808594 322.65625 199.808594 C 322.65625 199.808594 330.941406 200.238281 330.878906 207.5625 C 330.839844 212.074219 322.753906 215.855469 331.875 237.316406 C 337.988281 251.722656 334.1875 261.246094 323.921875 263.363281 Z M 323.921875 263.363281 " fill-opacity="1" fill-rule="nonzero"/><path fill="#ffffff" d="M 221.441406 48.214844 C 220.902344 47.484375 219.882812 47.273438 219.191406 47.746094 C 215.582031 50.226562 206.226562 58.660156 217.035156 74.132812 C 217.621094 74.96875 218.820312 75.160156 219.492188 74.503906 C 222.878906 71.175781 230.964844 61.128906 221.441406 48.214844 Z M 218.53125 72.03125 C 219.679688 65.140625 219.582031 52.34375 219.582031 52.34375 C 222.042969 59.011719 218.53125 72.03125 218.53125 72.03125 Z M 218.53125 72.03125 " fill-opacity="1" fill-rule="nonzero"/><path fill="#ffffff" d="M 191.191406 72.25 C 183.546875 69.296875 175.625 67.230469 167.660156 65.359375 L 161.632812 64.144531 C 159.617188 63.78125 157.570312 63.621094 155.535156 63.332031 C 151.46875 62.523438 147.347656 62.675781 143.195312 62.171875 C 151.4375 61.226562 159.886719 61.238281 168.167969 62.523438 C 176.492188 63.742188 184.59375 65.8125 192.476562 68.738281 C 200.3125 71.679688 207.949219 75.152344 215.15625 79.371094 C 222.359375 83.566406 229.324219 88.214844 235.542969 93.753906 C 231.964844 91.632812 228.441406 89.488281 224.765625 87.597656 C 221.167969 85.582031 217.515625 83.683594 213.808594 81.898438 C 206.394531 78.347656 198.886719 75.039062 191.191406 72.25 Z M 191.191406 72.25 " fill-opacity="1" fill-rule="nonzero"/><path fill="#ffffff" d="M 166.402344 57.507812 C 166.570312 53.679688 165.820312 43.296875 153.085938 40.902344 C 152.367188 40.765625 151.648438 41.203125 151.5 41.859375 C 150.734375 45.3125 149.847656 55.441406 164.746094 58.640625 C 165.554688 58.8125 166.367188 58.265625 166.402344 57.507812 Z M 164.476562 56.574219 C 161.363281 51.871094 154.261719 44.363281 154.261719 44.363281 C 159.382812 46.949219 164.476562 56.574219 164.476562 56.574219 Z M 164.476562 56.574219 " fill-opacity="1" fill-rule="nonzero"/><path fill="#ffffff" d="M 186.277344 60.097656 C 187.667969 56.085938 190.15625 44.824219 177.394531 38.257812 C 176.671875 37.886719 175.769531 38.121094 175.40625 38.773438 C 173.5 42.195312 169.351562 52.671875 184.160156 60.777344 C 184.960938 61.214844 186 60.890625 186.277344 60.097656 Z M 184.523438 58.5 C 182.707031 52.519531 177.542969 42.304688 177.542969 42.304688 C 182.164062 46.667969 184.523438 58.5 184.523438 58.5 Z M 184.523438 58.5 " fill-opacity="1" fill-rule="nonzero"/><path fill="#ffffff" d="M 202.621094 67.417969 C 205.707031 63.808594 212.894531 53.101562 202.289062 41.058594 C 201.6875 40.378906 200.652344 40.253906 200.007812 40.785156 C 196.625 43.570312 188.035156 52.78125 200.144531 67.261719 C 200.796875 68.042969 202.007812 68.128906 202.621094 67.417969 Z M 201.449219 65.039062 C 202 58.074219 200.792969 45.332031 200.792969 45.332031 C 203.824219 51.761719 201.449219 65.039062 201.449219 65.039062 Z M 201.449219 65.039062 " fill-opacity="1" fill-rule="nonzero"/><path fill="#ffffff" d="M 194.625 103.914062 C 194.570312 104.820312 195.214844 105.636719 196.046875 105.714844 C 200.410156 106.128906 213 105.652344 214.628906 86.851562 C 214.71875 85.835938 213.917969 84.917969 212.984375 84.996094 C 208.25 85.375 195.601562 87.898438 194.625 103.914062 Z M 198.699219 101.9375 C 201.085938 95.246094 212.132812 87.507812 212.132812 87.507812 C 206.832031 92.058594 198.699219 101.9375 198.699219 101.9375 Z M 198.699219 101.9375 " fill-opacity="1" fill-rule="nonzero"/><path fill="#ffffff" d="M 177.378906 96.535156 C 177.324219 97.4375 177.972656 98.257812 178.804688 98.335938 C 183.164062 98.746094 195.753906 98.273438 197.386719 79.472656 C 197.472656 78.457031 196.675781 77.539062 195.738281 77.613281 C 191.007812 77.996094 178.359375 80.519531 177.378906 96.535156 Z M 181.457031 94.558594 C 183.84375 87.863281 194.890625 80.125 194.890625 80.125 C 189.589844 84.675781 181.457031 94.558594 181.457031 94.558594 Z M 181.457031 94.558594 " fill-opacity="1" fill-rule="nonzero"/><path fill="#ffffff" d="M 143.785156 76.433594 C 146.4375 78.152344 154.640625 82.050781 161.960938 70.582031 C 162.359375 69.960938 162.152344 69.109375 161.53125 68.84375 C 158.378906 67.507812 149.453125 64.898438 143.476562 74.808594 C 143.394531 74.9375 143.339844 75.078125 143.3125 75.230469 C 143.28125 75.378906 143.28125 75.53125 143.3125 75.679688 C 143.339844 75.832031 143.394531 75.972656 143.476562 76.101562 C 143.558594 76.234375 143.664062 76.34375 143.785156 76.433594 Z M 146.742188 74.90625 C 150.503906 71.425781 160.148438 70.164062 160.148438 70.164062 C 155.242188 71.304688 146.742188 74.90625 146.742188 74.90625 Z M 146.742188 74.90625 " fill-opacity="1" fill-rule="nonzero"/><path fill="#ffffff" d="M 159.03125 89.648438 C 158.980469 90.515625 159.597656 91.296875 160.394531 91.371094 C 164.566406 91.765625 176.609375 91.3125 178.171875 73.328125 C 178.253906 72.355469 177.492188 71.476562 176.597656 71.546875 C 172.070312 71.914062 159.96875 74.328125 159.03125 89.648438 Z M 162.933594 87.757812 C 165.214844 81.355469 175.785156 73.949219 175.785156 73.949219 C 170.710938 78.304688 162.933594 87.757812 162.933594 87.757812 Z M 162.933594 87.757812 " fill-opacity="1" fill-rule="nonzero"/></svg>