<svg xmlns="http://www.w3.org/2000/svg" xmlns:xlink="http://www.w3.org/1999/xlink" width="500" zoomAndPan="magnify" viewBox="0 0 375 374.999991" height="500" preserveAspectRatio="xMidYMid meet" version="1.0"><defs><clipPath id="687735f68c"><path d="M 59.128906 59.128906 L 315.628906 59.128906 L 315.628906 315.628906 L 59.128906 315.628906 Z M 59.128906 59.128906 " clip-rule="nonzero"/></clipPath></defs><g clip-path="url(#687735f68c)"><path fill="#000000" d="M 187.378906 59.128906 C 116.550781 59.128906 59.128906 116.550781 59.128906 187.378906 C 59.128906 244.449219 96.4375 292.769531 147.972656 309.398438 C 143.390625 275.164062 146.050781 234.832031 160.050781 202.929688 C 175.417969 167.882812 216.296875 148.027344 216.296875 148.027344 C 216.296875 148.027344 170.726562 156.683594 148.003906 194.558594 C 135.949219 214.640625 129.261719 250.136719 129.261719 250.136719 C 129.261719 250.136719 86.296875 192.132812 137.851562 143.484375 C 172.289062 110.972656 244.269531 117.558594 264.394531 129.164062 C 237.738281 171.453125 253.492188 215.59375 224.539062 242.164062 C 192.667969 271.402344 157.410156 266.421875 157.410156 266.421875 C 157.410156 266.421875 156.585938 286.34375 165.652344 313.640625 C 172.714844 314.859375 179.949219 315.628906 187.378906 315.628906 C 258.203125 315.628906 315.628906 258.203125 315.628906 187.378906 C 315.628906 116.550781 258.203125 59.128906 187.378906 59.128906 Z M 187.378906 59.128906 " fill-opacity="1" fill-rule="nonzero"/></g></svg>