<svg xmlns="http://www.w3.org/2000/svg" xmlns:xlink="http://www.w3.org/1999/xlink" width="500" zoomAndPan="magnify" viewBox="0 0 375 374.999991" height="500" preserveAspectRatio="xMidYMid meet" version="1.0"><defs><clipPath id="b5aefafc17"><path d="M 4.464844 16.136719 L 370.464844 16.136719 L 370.464844 358.886719 L 4.464844 358.886719 Z M 4.464844 16.136719 " clip-rule="nonzero"/></clipPath></defs><g clip-path="url(#b5aefafc17)"><path fill="#000000" d="M 335.230469 227.144531 L 342.65625 244.039062 L 326.101562 252.203125 L 330.46875 270.136719 L 312.746094 275.296875 L 313.933594 293.722656 L 295.582031 295.734375 L 293.570312 314.085938 L 275.152344 312.898438 L 269.992188 330.628906 L 252.066406 326.257812 L 243.902344 342.816406 L 227.007812 335.382812 L 216.078125 350.253906 L 200.734375 339.984375 L 187.390625 352.738281 L 174.042969 339.984375 L 158.695312 350.253906 L 147.765625 335.382812 L 130.871094 342.8125 L 122.710938 326.257812 L 104.777344 330.625 L 99.621094 312.898438 L 81.203125 314.085938 L 79.191406 295.734375 L 60.839844 293.714844 L 62.027344 275.292969 L 44.304688 270.136719 L 48.671875 252.199219 L 32.117188 244.035156 L 39.550781 227.136719 L 32.710938 222.113281 L 47.65625 222.113281 C 63.191406 284.84375 119.941406 331.484375 187.390625 331.484375 C 254.835938 331.484375 311.585938 284.84375 327.117188 222.113281 L 342.066406 222.113281 Z M 39.550781 147.882812 L 32.117188 130.980469 L 48.671875 122.820312 L 44.308594 104.882812 L 62.03125 99.722656 L 60.839844 81.300781 L 79.191406 79.289062 L 81.203125 60.933594 L 99.625 62.121094 L 104.78125 44.390625 L 122.714844 48.761719 L 130.875 32.203125 L 147.769531 39.636719 L 158.699219 24.765625 L 174.039062 35.035156 L 187.390625 22.28125 L 200.734375 35.035156 L 216.078125 24.765625 L 227.007812 39.636719 L 243.902344 32.207031 L 252.070312 48.761719 L 270 44.398438 L 275.15625 62.125 L 293.574219 60.9375 L 295.585938 79.292969 L 313.9375 81.304688 L 312.746094 99.726562 L 330.46875 104.882812 L 326.105469 122.820312 L 342.65625 130.984375 L 335.230469 147.882812 L 349.066406 158.054688 L 328.296875 158.054688 C 314.667969 92.75 256.667969 43.535156 187.390625 43.535156 C 118.109375 43.535156 60.105469 92.75 46.480469 158.054688 L 25.714844 158.054688 Z M 277.179688 158.054688 C 264.777344 120.308594 229.222656 92.972656 187.390625 92.972656 C 145.550781 92.972656 110.003906 120.308594 97.59375 158.054688 L 52.527344 158.054688 C 66.054688 96.03125 121.382812 49.445312 187.390625 49.445312 C 253.398438 49.445312 308.722656 96.03125 322.25 158.054688 Z M 103.832031 158.054688 C 116 123.625 148.851562 98.882812 187.390625 98.882812 C 225.925781 98.882812 258.777344 123.625 270.945312 158.054688 Z M 10.683594 217.679688 L 19.085938 188.648438 L 10.765625 162.488281 L 363.851562 162.488281 L 354.15625 188.644531 L 363.953125 217.679688 Z M 99.457031 222.113281 C 113.296875 257.167969 147.480469 282.046875 187.390625 282.046875 C 227.296875 282.046875 261.480469 257.167969 275.320312 222.113281 L 321.03125 222.113281 C 305.640625 281.550781 251.558594 325.574219 187.390625 325.574219 C 123.214844 325.574219 69.136719 281.550781 53.742188 222.113281 Z M 268.957031 222.113281 C 255.457031 253.839844 223.976562 276.140625 187.390625 276.140625 C 150.800781 276.140625 119.316406 253.839844 105.816406 222.113281 Z M 355.933594 158.054688 L 356.136719 157.757812 L 340.714844 146.414062 L 348.421875 128.886719 L 331.25 120.417969 L 335.777344 101.8125 L 317.398438 96.464844 L 318.632812 77.355469 L 299.601562 75.269531 L 297.515625 56.242188 L 278.414062 57.472656 L 273.070312 39.085938 L 254.472656 43.617188 L 246.003906 26.441406 L 228.480469 34.152344 L 217.140625 18.722656 L 201.226562 29.375 L 187.390625 16.148438 L 173.546875 29.375 L 157.640625 18.722656 L 146.304688 34.152344 L 128.777344 26.441406 L 120.3125 43.613281 L 101.710938 39.085938 L 96.363281 57.472656 L 77.261719 56.238281 L 75.175781 75.265625 L 56.148438 77.355469 L 57.378906 96.460938 L 39 101.808594 L 43.527344 120.410156 L 26.359375 128.882812 L 34.066406 146.410156 L 18.640625 157.753906 L 18.84375 158.054688 L 4.710938 158.054688 L 14.457031 188.710938 L 4.792969 222.113281 L 25.230469 222.113281 L 34.066406 228.609375 L 26.355469 246.132812 L 43.527344 254.605469 L 38.996094 273.207031 L 57.378906 278.554688 L 56.148438 297.664062 L 75.171875 299.75 L 77.257812 318.78125 L 96.359375 317.546875 L 101.707031 335.933594 L 120.304688 331.40625 L 128.773438 348.578125 L 146.300781 340.871094 L 157.640625 356.296875 L 173.550781 345.644531 L 187.390625 358.871094 L 201.226562 345.644531 L 217.136719 356.296875 L 228.476562 340.871094 L 246 348.582031 L 254.46875 331.40625 L 273.066406 335.9375 L 278.414062 317.546875 L 297.515625 318.78125 L 299.601562 299.753906 L 318.628906 297.667969 L 317.398438 278.5625 L 335.777344 273.210938 L 331.25 254.609375 L 348.421875 246.136719 L 340.714844 228.609375 L 349.546875 222.113281 L 370.125 222.113281 L 358.851562 188.714844 L 370.222656 158.054688 L 355.933594 158.054688 " fill-opacity="1" fill-rule="nonzero"/></g><path fill="#100f0d" d="M 78.097656 194.414062 L 82.671875 194.414062 L 82.671875 197.136719 C 82.671875 200.566406 81.308594 201.988281 78.476562 201.988281 C 75.757812 201.988281 74.394531 200.566406 74.394531 197.136719 L 74.394531 182.324219 C 74.394531 178.894531 75.8125 177.480469 78.425781 177.480469 C 81.09375 177.480469 82.183594 178.894531 82.347656 182.324219 L 90.078125 182.324219 C 89.804688 174.320312 85.777344 170.015625 78.425781 170.015625 C 70.800781 170.015625 66.339844 174.320312 66.339844 182.324219 L 66.339844 197.136719 C 66.339844 205.140625 70.800781 209.445312 78.371094 209.445312 C 85.832031 209.445312 90.078125 205.140625 90.292969 197.136719 L 90.292969 187.554688 L 78.097656 187.554688 L 78.097656 194.414062 " fill-opacity="1" fill-rule="nonzero"/><path fill="#100f0d" d="M 111.152344 196.539062 C 111.152344 200.027344 109.792969 201.929688 107.066406 201.929688 C 104.347656 201.929688 102.984375 200.027344 102.984375 196.539062 L 102.984375 170.667969 L 94.929688 170.667969 L 94.929688 196.539062 C 94.929688 204.601562 99.445312 209.445312 107.066406 209.445312 C 114.691406 209.445312 119.210938 204.601562 119.210938 196.539062 L 119.210938 170.667969 L 111.152344 170.667969 L 111.152344 196.539062 " fill-opacity="1" fill-rule="nonzero"/><path fill="#100f0d" d="M 132.878906 195.125 L 133.753906 190.769531 C 134.296875 188.042969 134.894531 183.417969 135.273438 180.3125 L 135.492188 180.3125 C 135.875 183.417969 136.527344 188.042969 137.019531 190.769531 L 137.890625 195.125 Z M 131.246094 170.667969 L 122.097656 208.792969 L 130.101562 208.792969 L 131.355469 202.476562 L 139.414062 202.476562 L 140.667969 208.792969 L 148.667969 208.792969 L 139.523438 170.667969 L 131.246094 170.667969 " fill-opacity="1" fill-rule="nonzero"/><path fill="#100f0d" d="M 163.160156 188.640625 L 159.941406 188.640625 L 159.941406 178.019531 L 163.160156 178.019531 C 165.878906 178.019531 167.347656 179.875 167.347656 183.359375 C 167.347656 186.792969 165.878906 188.640625 163.160156 188.640625 Z M 175.296875 183.359375 C 175.296875 175.355469 170.835938 170.667969 163.265625 170.667969 L 152.214844 170.667969 L 152.214844 208.792969 L 159.941406 208.792969 L 159.941406 195.996094 L 162.667969 195.996094 L 168.765625 208.792969 L 177.207031 208.792969 L 170.019531 194.359375 C 173.394531 192.347656 175.296875 188.535156 175.296875 183.359375 " fill-opacity="1" fill-rule="nonzero"/><path fill="#100f0d" d="M 188.425781 195.125 L 189.292969 190.769531 C 189.839844 188.042969 190.4375 183.417969 190.820312 180.3125 L 191.039062 180.3125 C 191.417969 183.417969 192.070312 188.042969 192.558594 190.769531 L 193.433594 195.125 Z M 186.792969 170.667969 L 177.644531 208.792969 L 185.648438 208.792969 L 186.898438 202.476562 L 194.960938 202.476562 L 196.210938 208.792969 L 204.214844 208.792969 L 195.066406 170.667969 L 186.792969 170.667969 " fill-opacity="1" fill-rule="nonzero"/><path fill="#100f0d" d="M 224.417969 179.496094 C 224.417969 183.035156 224.851562 189.570312 225.503906 194.359375 L 225.34375 194.527344 C 224.417969 192.128906 223.542969 189.621094 222.621094 187.226562 L 215.378906 170.667969 L 207.753906 170.667969 L 207.753906 208.792969 L 215.378906 208.792969 L 215.378906 201.0625 C 215.378906 196.808594 215 189.675781 214.398438 184.886719 L 214.558594 184.722656 L 217.992188 194.035156 L 224.417969 208.792969 L 232.042969 208.792969 L 232.042969 170.667969 L 224.417969 170.667969 L 224.417969 179.496094 " fill-opacity="1" fill-rule="nonzero"/><path fill="#100f0d" d="M 236.238281 178.019531 L 243.695312 178.019531 L 243.695312 208.792969 L 251.644531 208.792969 L 251.644531 178.019531 L 259.105469 178.019531 L 259.105469 170.667969 L 236.238281 170.667969 L 236.238281 178.019531 " fill-opacity="1" fill-rule="nonzero"/><path fill="#100f0d" d="M 270.488281 201.441406 L 270.488281 193 L 281.320312 193 L 281.320312 185.917969 L 270.488281 185.917969 L 270.488281 178.019531 L 282.414062 178.019531 L 282.414062 170.667969 L 262.753906 170.667969 L 262.753906 208.792969 L 282.953125 208.792969 L 282.953125 201.441406 L 270.488281 201.441406 " fill-opacity="1" fill-rule="nonzero"/><path fill="#100f0d" d="M 295.96875 193 L 306.808594 193 L 306.808594 185.917969 L 295.96875 185.917969 L 295.96875 178.019531 L 307.894531 178.019531 L 307.894531 170.667969 L 288.242188 170.667969 L 288.242188 208.792969 L 308.441406 208.792969 L 308.441406 201.441406 L 295.96875 201.441406 L 295.96875 193 " fill-opacity="1" fill-rule="nonzero"/><path fill="#000000" d="M 190.226562 126.582031 L 187.390625 117.855469 L 184.550781 126.582031 L 175.378906 126.582031 L 182.804688 131.976562 L 179.964844 140.707031 L 187.390625 135.308594 L 194.8125 140.707031 L 191.976562 131.976562 L 199.398438 126.582031 L 190.226562 126.582031 " fill-opacity="1" fill-rule="nonzero"/><path fill="#000000" d="M 163.648438 129.777344 L 161.457031 123.023438 L 159.257812 129.777344 L 152.160156 129.777344 L 157.90625 133.949219 L 155.710938 140.707031 L 161.457031 136.53125 L 167.199219 140.707031 L 165.007812 133.949219 L 170.75 129.777344 L 163.648438 129.777344 " fill-opacity="1" fill-rule="nonzero"/><path fill="#000000" d="M 215.515625 129.777344 L 213.324219 123.023438 L 211.128906 129.777344 L 204.027344 129.777344 L 209.773438 133.949219 L 207.578125 140.707031 L 213.324219 136.53125 L 219.066406 140.707031 L 216.871094 133.949219 L 222.617188 129.777344 L 215.515625 129.777344 " fill-opacity="1" fill-rule="nonzero"/><path fill="#000000" d="M 184.550781 252.640625 L 187.390625 261.367188 L 190.226562 252.640625 L 199.398438 252.640625 L 191.976562 247.242188 L 194.8125 238.515625 L 187.390625 243.90625 L 179.964844 238.515625 L 182.804688 247.242188 L 175.378906 252.640625 L 184.550781 252.640625 " fill-opacity="1" fill-rule="nonzero"/><path fill="#000000" d="M 159.257812 249.445312 L 161.457031 256.199219 L 163.648438 249.445312 L 170.75 249.445312 L 165.007812 245.269531 L 167.199219 238.515625 L 161.457031 242.691406 L 155.710938 238.515625 L 157.90625 245.269531 L 152.160156 249.445312 L 159.257812 249.445312 " fill-opacity="1" fill-rule="nonzero"/><path fill="#000000" d="M 211.128906 249.445312 L 213.324219 256.199219 L 215.515625 249.445312 L 222.617188 249.445312 L 216.871094 245.269531 L 219.066406 238.515625 L 213.324219 242.691406 L 207.578125 238.515625 L 209.773438 245.269531 L 204.027344 249.445312 L 211.128906 249.445312 " fill-opacity="1" fill-rule="nonzero"/><path fill="#100f0d" d="M 88.609375 233.582031 L 90.097656 236.542969 C 91.464844 239.246094 90.554688 241.351562 87.496094 242.894531 C 84.292969 244.511719 82.132812 243.945312 80.769531 241.242188 L 79.28125 238.289062 Z M 89.34375 246.5625 C 94.4375 244 95.988281 239.730469 93.535156 234.851562 L 90.214844 228.265625 L 65.289062 240.824219 L 67.105469 244.421875 L 75.863281 240.007812 L 77.367188 243 C 79.828125 247.878906 84.109375 249.203125 89.34375 246.5625 " fill-opacity="1" fill-rule="nonzero"/><path fill="#100f0d" d="M 97.695312 249.410156 L 99.5625 251.945312 C 101.214844 254.195312 100.742188 256.375 98.078125 258.339844 C 95.414062 260.300781 93.0625 260.203125 91.382812 257.917969 L 89.539062 255.417969 Z M 100.601562 261.632812 C 105.0625 258.34375 105.835938 254.015625 102.667969 249.710938 L 98.390625 243.894531 L 75.910156 260.445312 L 78.300781 263.691406 L 86.457031 257.6875 L 87.945312 259.710938 L 83.125 270.246094 L 85.769531 273.839844 L 90.785156 262.621094 C 93.605469 264.503906 97.101562 264.210938 100.601562 261.632812 " fill-opacity="1" fill-rule="nonzero"/><path fill="#100f0d" d="M 100.230469 288.28125 L 102.871094 285.570312 L 95.664062 278.566406 L 101.613281 272.441406 L 107.988281 278.636719 L 110.570312 275.980469 L 104.195312 269.78125 L 109.835938 263.972656 L 116.757812 270.703125 L 119.394531 267.984375 L 109.585938 258.449219 L 90.140625 278.476562 L 100.230469 288.28125 " fill-opacity="1" fill-rule="nonzero"/><path fill="#100f0d" d="M 109.421875 295.515625 L 115.332031 286.367188 C 117 283.648438 118.480469 281.136719 119.957031 278.625 L 120.140625 278.648438 C 119.59375 280.957031 119.011719 283.617188 118.429688 286.28125 L 117.027344 292.929688 L 120.375 295.097656 L 125.863281 291.089844 C 128.050781 289.46875 130.246094 287.84375 132.128906 286.402344 L 132.21875 286.554688 C 130.503906 288.914062 128.851562 291.316406 127.054688 293.949219 L 121.140625 303.097656 L 124.453125 305.238281 L 139.617188 281.792969 L 136.167969 279.5625 L 126.066406 286.519531 C 124.664062 287.511719 122.410156 289.238281 121.347656 290.070312 L 121.214844 289.984375 C 121.535156 288.671875 122.183594 285.910156 122.515625 284.222656 L 124.714844 272.15625 L 121.265625 269.921875 L 106.105469 293.367188 L 109.421875 295.515625 " fill-opacity="1" fill-rule="nonzero"/><path fill="#100f0d" d="M 135.902344 310.210938 L 147.101562 284.632812 L 143.414062 283.019531 L 132.214844 308.597656 L 135.902344 310.210938 " fill-opacity="1" fill-rule="nonzero"/><path fill="#100f0d" d="M 150.523438 315.769531 C 155.3125 317.144531 159.3125 314.929688 160.90625 309.371094 L 166.226562 290.8125 L 162.242188 289.671875 L 156.917969 308.226562 C 155.960938 311.5625 154.015625 312.703125 151.601562 312.011719 C 149.148438 311.308594 148.105469 309.304688 149.058594 305.96875 L 154.386719 287.414062 L 150.394531 286.269531 L 145.074219 304.828125 C 143.480469 310.386719 145.695312 314.382812 150.523438 315.769531 " fill-opacity="1" fill-rule="nonzero"/><path fill="#100f0d" d="M 171.894531 308.871094 C 172.035156 305.683594 172.117188 302.769531 172.199219 299.855469 L 172.363281 299.789062 C 173.003906 302.070312 173.78125 304.683594 174.558594 307.296875 L 176.546875 313.789062 L 180.523438 314.066406 L 183.390625 307.90625 C 184.519531 305.429688 185.652344 302.949219 186.601562 300.773438 L 186.753906 300.863281 C 186.394531 303.757812 186.113281 306.652344 185.816406 309.835938 L 185.0625 320.695312 L 189 320.96875 L 190.925781 293.117188 L 186.832031 292.835938 L 181.355469 303.808594 C 180.609375 305.355469 179.472656 307.957031 178.941406 309.199219 L 178.785156 309.1875 C 178.433594 307.882812 177.664062 305.152344 177.136719 303.515625 L 173.226562 291.894531 L 169.128906 291.609375 L 167.207031 319.457031 L 171.140625 319.734375 L 171.894531 308.871094 " fill-opacity="1" fill-rule="nonzero"/><path fill="#100f0d" d="M 210.417969 293.585938 C 213.265625 292.972656 215.109375 294.535156 215.855469 297.964844 L 218.011719 307.949219 C 218.332031 309.429688 218.320312 310.695312 217.96875 311.714844 L 215.222656 309.574219 L 213.335938 312.183594 L 215.640625 313.972656 C 215.378906 314.070312 215.140625 314.117188 214.871094 314.179688 C 212.0625 314.785156 210.214844 313.226562 209.472656 309.792969 L 207.3125 299.808594 C 206.574219 296.382812 207.613281 294.199219 210.417969 293.585938 Z M 205.378906 310.679688 C 206.609375 316.371094 210.480469 319.167969 215.703125 318.039062 C 217.027344 317.753906 218.15625 317.304688 219.078125 316.65625 L 222.117188 319.019531 L 224.050781 316.4375 L 221.300781 314.296875 C 222.445312 312.417969 222.726562 309.945312 222.105469 307.0625 L 219.945312 297.078125 C 218.71875 291.386719 214.847656 288.589844 209.582031 289.726562 C 204.359375 290.855469 201.992188 295.003906 203.222656 300.699219 L 205.378906 310.679688 " fill-opacity="1" fill-rule="nonzero"/><path fill="#100f0d" d="M 238.941406 310.605469 C 243.535156 308.675781 245.269531 304.449219 243.035156 299.113281 L 235.570312 281.308594 L 231.746094 282.910156 L 239.207031 300.714844 C 240.550781 303.914062 239.75 306.027344 237.429688 306.996094 C 235.078125 307.988281 233.007812 307.078125 231.667969 303.875 L 224.210938 286.070312 L 220.386719 287.675781 L 227.84375 305.480469 C 230.078125 310.816406 234.308594 312.542969 238.941406 310.605469 " fill-opacity="1" fill-rule="nonzero"/><path fill="#100f0d" d="M 246.746094 280.332031 L 246.847656 280.269531 C 247.8125 281.402344 249.625 283.410156 250.953125 284.738281 L 256.480469 290.101562 L 251.710938 293.160156 L 249.109375 285.925781 C 248.484375 284.144531 247.375 281.683594 246.746094 280.332031 Z M 254.964844 302.210938 L 253.003906 296.789062 L 259.210938 292.804688 L 263.351562 296.824219 L 266.878906 294.5625 L 245.890625 274.859375 L 242.234375 277.210938 L 251.40625 304.496094 L 254.964844 302.210938 " fill-opacity="1" fill-rule="nonzero"/><path fill="#100f0d" d="M 281.289062 282.042969 L 278.757812 279.171875 L 271.816406 285.292969 L 255.878906 267.226562 L 252.859375 269.894531 L 271.332031 290.832031 L 281.289062 282.042969 " fill-opacity="1" fill-rule="nonzero"/><path fill="#100f0d" d="M 287.316406 275.308594 L 266.636719 256.566406 L 263.933594 259.546875 L 284.613281 278.292969 L 287.316406 275.308594 " fill-opacity="1" fill-rule="nonzero"/><path fill="#100f0d" d="M 274.792969 252.546875 L 294.367188 266.585938 L 296.757812 263.25 L 277.183594 249.210938 L 280.578125 244.480469 L 278.761719 243.175781 L 296.882812 245.449219 L 305.046875 249.617188 L 306.878906 246.03125 L 298.710938 241.859375 L 285.097656 227.300781 L 283.175781 231.070312 L 289.96875 238.023438 L 293.296875 241.335938 L 293.257812 241.40625 C 291.835938 241.128906 289.964844 240.84375 288.71875 240.65625 L 279.011719 239.242188 L 277.472656 242.25 L 277.464844 242.246094 L 268.3125 255.015625 L 271.421875 257.25 L 274.792969 252.546875 " fill-opacity="1" fill-rule="nonzero"/><path fill="#100f0d" d="M 79.996094 143.644531 L 78.75 146.710938 L 69.074219 142.773438 L 70.320312 139.707031 C 71.460938 136.902344 73.640625 136.195312 76.816406 137.488281 C 80.144531 138.839844 81.136719 140.839844 79.996094 143.644531 Z M 83.558594 145.050781 C 85.617188 139.992188 83.800781 135.894531 78.367188 133.683594 C 73.085938 131.535156 68.847656 133.167969 66.789062 138.230469 L 64.007812 145.066406 L 89.863281 155.585938 L 91.382812 151.855469 L 82.292969 148.15625 L 83.558594 145.050781 " fill-opacity="1" fill-rule="nonzero"/><path fill="#100f0d" d="M 89.082031 125.34375 L 87.414062 127.96875 L 78.863281 122.542969 L 80.554688 119.882812 C 82.050781 117.527344 84.25 117.179688 87.046875 118.949219 C 89.84375 120.726562 90.597656 122.953125 89.082031 125.34375 Z M 89.203125 115.40625 C 84.519531 112.4375 80.207031 113.289062 77.34375 117.796875 L 73.472656 123.894531 L 97.042969 138.851562 L 99.199219 135.453125 L 90.648438 130.027344 L 91.996094 127.902344 L 103.558594 128.582031 L 105.949219 124.808594 L 93.679688 124.199219 C 94.414062 120.890625 92.867188 117.738281 89.203125 115.40625 " fill-opacity="1" fill-rule="nonzero"/><path fill="#100f0d" d="M 107.484375 117.621094 L 101.1875 111.855469 L 107.195312 105.292969 L 104.457031 102.792969 L 98.453125 109.347656 L 92.480469 103.878906 L 99 96.765625 L 96.203125 94.207031 L 86.972656 104.292969 L 107.558594 123.152344 L 117.0625 112.765625 L 114.265625 110.210938 L 107.484375 117.621094 " fill-opacity="1" fill-rule="nonzero"/><path fill="#100f0d" d="M 117.242188 77.515625 L 120 89.46875 C 120.410156 91.136719 121.1875 93.867188 121.570312 95.160156 L 121.441406 95.25 C 120.339844 94.46875 118.011719 92.851562 116.5625 91.925781 L 106.152344 85.449219 L 102.8125 87.839844 L 119.042969 110.542969 L 122.253906 108.25 L 115.921875 99.390625 C 114.003906 96.847656 112.210938 94.546875 110.425781 92.246094 L 110.503906 92.089844 C 112.453125 93.445312 114.71875 94.964844 116.980469 96.480469 L 122.644531 100.226562 L 125.886719 97.902344 L 124.179688 91.335938 C 123.472656 88.699219 122.765625 86.066406 122.117188 83.789062 L 122.292969 83.757812 C 123.855469 86.222656 125.484375 88.632812 127.273438 91.273438 L 133.605469 100.132812 L 136.816406 97.835938 L 120.582031 75.128906 L 117.242188 77.515625 " fill-opacity="1" fill-rule="nonzero"/><path fill="#100f0d" d="M 128.84375 71.09375 L 141.019531 96.214844 L 144.644531 94.457031 L 132.46875 69.332031 L 128.84375 71.09375 " fill-opacity="1" fill-rule="nonzero"/><path fill="#100f0d" d="M 155.488281 60.910156 L 151.539062 62.175781 L 157.421875 80.554688 C 158.472656 83.863281 157.492188 85.890625 155.097656 86.65625 C 152.671875 87.433594 150.6875 86.351562 149.636719 83.050781 L 143.753906 64.664062 L 139.804688 65.929688 L 145.683594 84.308594 C 147.449219 89.816406 151.503906 91.910156 156.289062 90.378906 C 161.035156 88.863281 163.128906 84.804688 161.367188 79.292969 L 155.488281 60.910156 " fill-opacity="1" fill-rule="nonzero"/><path fill="#100f0d" d="M 182.859375 57.132812 L 179.140625 68.820312 C 178.640625 70.464844 177.917969 73.210938 177.59375 74.523438 L 177.433594 74.535156 C 176.886719 73.300781 175.707031 70.71875 174.933594 69.1875 L 169.269531 58.304688 L 165.179688 58.65625 L 167.578125 86.476562 L 171.507812 86.136719 L 170.574219 75.285156 C 170.222656 72.117188 169.851562 69.222656 169.480469 66.332031 L 169.632812 66.238281 C 170.621094 68.394531 171.792969 70.859375 172.964844 73.320312 L 175.933594 79.429688 L 179.90625 79.085938 L 181.785156 72.558594 C 182.519531 69.929688 183.253906 67.304688 183.855469 65.011719 L 184.023438 65.082031 C 184.113281 67.992188 184.28125 70.902344 184.480469 74.085938 L 185.417969 84.9375 L 189.347656 84.597656 L 186.945312 56.777344 L 182.859375 57.132812 " fill-opacity="1" fill-rule="nonzero"/><path fill="#100f0d" d="M 217.402344 69.742188 L 215.242188 79.726562 C 214.921875 81.210938 214.386719 82.355469 213.648438 83.136719 L 212.03125 80.050781 L 209.238281 81.652344 L 210.597656 84.230469 C 210.316406 84.210938 210.082031 84.164062 209.808594 84.101562 C 207.003906 83.492188 205.96875 81.3125 206.707031 77.882812 L 208.863281 67.898438 C 209.605469 64.464844 211.453125 62.90625 214.257812 63.511719 C 217.105469 64.128906 218.144531 66.3125 217.402344 69.742188 Z M 215.09375 59.652344 C 209.871094 58.519531 206 61.320312 204.773438 67.011719 L 202.613281 76.996094 C 201.382812 82.6875 203.75 86.832031 208.976562 87.964844 C 210.300781 88.246094 211.511719 88.308594 212.617188 88.097656 L 214.414062 91.507812 L 217.238281 89.953125 L 215.617188 86.867188 C 217.4375 85.628906 218.710938 83.496094 219.339844 80.613281 L 221.492188 70.628906 C 222.726562 64.933594 220.359375 60.789062 215.09375 59.652344 " fill-opacity="1" fill-rule="nonzero"/><path fill="#100f0d" d="M 246.503906 71.097656 L 242.695312 69.453125 L 235.046875 87.179688 C 233.675781 90.367188 231.601562 91.253906 229.292969 90.257812 C 226.949219 89.246094 226.167969 87.128906 227.542969 83.9375 L 235.183594 66.210938 L 231.378906 64.570312 L 223.734375 82.296875 C 221.441406 87.609375 223.132812 91.859375 227.742188 93.847656 C 232.320312 95.824219 236.570312 94.132812 238.855469 88.824219 L 246.503906 71.097656 " fill-opacity="1" fill-rule="nonzero"/><path fill="#100f0d" d="M 254.679688 89.074219 L 251.953125 96.277344 L 247.253906 93.117188 L 252.859375 87.847656 C 254.25 86.570312 256.066406 84.574219 257.054688 83.460938 L 257.15625 83.527344 C 256.496094 84.863281 255.371094 87.328125 254.679688 89.074219 Z M 258.125 78.078125 L 236.730469 97.339844 L 240.238281 99.695312 L 244.433594 95.742188 L 250.558594 99.855469 L 248.515625 105.261719 L 251.992188 107.59375 L 261.738281 80.503906 L 258.125 78.078125 " fill-opacity="1" fill-rule="nonzero"/><path fill="#100f0d" d="M 258.945312 109.050781 L 275.40625 91.464844 L 272.464844 88.710938 L 253.394531 109.09375 L 263.085938 118.171875 L 265.703125 115.378906 L 258.945312 109.050781 " fill-opacity="1" fill-rule="nonzero"/><path fill="#100f0d" d="M 266.996094 123.152344 L 288.339844 105.164062 L 285.742188 102.085938 L 264.402344 120.070312 L 266.996094 123.152344 " fill-opacity="1" fill-rule="nonzero"/><path fill="#100f0d" d="M 272.015625 129.90625 L 274.257812 133.34375 L 294.425781 120.179688 L 297.613281 125.054688 L 300.816406 122.960938 L 292.230469 109.800781 L 289.023438 111.894531 L 292.183594 116.734375 L 272.015625 129.90625 " fill-opacity="1" fill-rule="nonzero"/><path fill="#100f0d" d="M 280.121094 144.128906 L 281.757812 147.808594 L 290.140625 144.082031 L 310.023438 142.660156 L 308.300781 138.796875 L 298.621094 139.695312 L 293.957031 140.199219 L 293.925781 140.125 C 295.039062 139.195312 296.433594 137.917969 297.367188 137.066406 L 304.574219 130.414062 L 302.878906 126.585938 L 288.503906 140.398438 L 280.121094 144.128906 " fill-opacity="1" fill-rule="nonzero"/></svg>